<svg xmlns="http://www.w3.org/2000/svg" xmlns:xlink="http://www.w3.org/1999/xlink" width="115" height="99" viewBox="0 0 115 99">
  <defs>
    <filter id="Rectángulo_121212" x="0" y="0" width="115" height="99" filterUnits="userSpaceOnUse">
      <feOffset dy="1" input="SourceAlpha"/>
      <feGaussianBlur stdDeviation="0.5" result="blur"/>
      <feFlood flood-opacity="0.161"/>
      <feComposite operator="in" in2="blur"/>
      <feComposite in="SourceGraphic"/>
    </filter>
    <filter id="Rectángulo_W_14_" x="0" y="0" width="115" height="99" filterUnits="userSpaceOnUse">
      <feOffset dy="1" input="SourceAlpha"/>
      <feGaussianBlur stdDeviation="0.5" result="blur-2"/>
      <feFlood flood-opacity="0.161"/>
      <feComposite operator="in" in2="blur-2"/>
      <feComposite in="SourceGraphic"/>
    </filter>
    <filter id="RectánguloBC_6_" x="0" y="0" width="115" height="99" filterUnits="userSpaceOnUse">
      <feOffset dy="1" input="SourceAlpha"/>
      <feGaussianBlur stdDeviation="0.5" result="blur-3"/>
      <feFlood flood-opacity="0.161"/>
      <feComposite operator="in" in2="blur-3"/>
      <feComposite in="SourceGraphic"/>
    </filter>
  </defs>
  <g id="Ilustracion_Combo" data-name="Ilustracion Combo" transform="translate(-1022.5 -182.5)">
    <g id="bg">
      <g transform="matrix(1, 0, 0, 1, 1022.5, 182.5)" filter="url(#Rectángulo_121212)">
        <g id="Rectángulo_121212-2" data-name="Rectángulo #121212" transform="translate(1.5 0.5)" fill="#121212" stroke="rgba(255,255,255,0.12)" stroke-width="1">
          <rect width="112" height="96" rx="2" stroke="none"/>
          <rect x="0.5" y="0.5" width="111" height="95" rx="1.5" fill="none"/>
        </g>
      </g>
      <g transform="matrix(1, 0, 0, 1, 1022.5, 182.5)" filter="url(#Rectángulo_W_14_)">
        <g id="Rectángulo_W_14_2" data-name="Rectángulo W 14%" transform="translate(1.5 0.5)" fill="rgba(255,255,255,0.16)" stroke="rgba(255,255,255,0.12)" stroke-width="1">
          <rect width="112" height="96" rx="2" stroke="none"/>
          <rect x="0.5" y="0.5" width="111" height="95" rx="1.5" fill="none"/>
        </g>
      </g>
      <g transform="matrix(1, 0, 0, 1, 1022.5, 182.5)" filter="url(#RectánguloBC_6_)">
        <g id="RectánguloBC_6_2" data-name="RectánguloBC 6%" transform="translate(1.5 0.5)" fill="rgba(20,100,165,0.06)" stroke="rgba(255,255,255,0.12)" stroke-width="1">
          <rect width="112" height="96" rx="2" stroke="none"/>
          <rect x="0.5" y="0.5" width="111" height="95" rx="1.5" fill="none"/>
        </g>
      </g>
    </g>
    <path id="Trazado_7093" data-name="Trazado 7093" d="M18835.143,195h96" transform="translate(-17803.143 19)" fill="none" stroke="rgba(255,255,255,0.12)" stroke-linecap="round" stroke-width="1.51"/>
    <path id="Trazado_7092" data-name="Trazado 7092" d="M18835.145,195h64" transform="translate(-17803.145 11)" fill="none" stroke="rgba(255,255,255,0.74)" stroke-linecap="round" stroke-width="1.51"/>
    <path id="Trazado_7091" data-name="Trazado 7091" d="M18835.145,195h16" transform="translate(-17803.145 3)" fill="none" stroke="rgba(255,255,255,0.6)" stroke-linecap="round" stroke-width="1.51"/>
    <g id="chevron_left_black_24dp_1_" data-name="chevron_left_black_24dp (1)" transform="translate(1130 193) rotate(90)">
      <path id="Trazado_7080" data-name="Trazado 7080" d="M0,0H18V18H0Z" fill="none"/>
      <path id="Trazado_7145" data-name="Trazado 7145" d="M1116.574,203.734h8.691l-2.347-2.347-1.931-1.931Z" transform="translate(210.734 -1112.266) rotate(90)" fill="rgba(255,255,255,0.6)"/>
    </g>
    <g id="Grupo_3900" data-name="Grupo 3900" transform="translate(0 10)">
      <path id="Trazado_7084" data-name="Trazado 7084" d="M18835.145,195h64" transform="translate(-17803.145 23.5)" fill="none" stroke="rgba(255,255,255,0.74)" stroke-linecap="round" stroke-width="1.51"/>
    </g>
    <g id="Grupo_3901" data-name="Grupo 3901" transform="translate(0 26)">
      <rect id="Rectángulo_6424" data-name="Rectángulo 6424" width="98" height="14" transform="translate(1032 211)" fill="rgba(255,255,255,0.12)"/>
      <path id="Trazado_7084-2" data-name="Trazado 7084" d="M18835.145,195h64" transform="translate(-17803.145 23.5)" fill="none" stroke="rgba(255,255,255,0.74)" stroke-linecap="round" stroke-width="1.51"/>
    </g>
    <g id="Grupo_3902" data-name="Grupo 3902" transform="translate(0 42)">
      <path id="Trazado_7084-3" data-name="Trazado 7084" d="M18835.145,195h64" transform="translate(-17803.145 23.5)" fill="none" stroke="rgba(255,255,255,0.74)" stroke-linecap="round" stroke-width="1.51"/>
    </g>
  </g>
</svg>
