<svg xmlns="http://www.w3.org/2000/svg" xmlns:xlink="http://www.w3.org/1999/xlink" width="137" height="101.804" viewBox="0 0 137 101.804">
  <defs>
    <filter id="Trazado_7146" x="-5" y="-4" width="106" height="106" filterUnits="userSpaceOnUse">
      <feOffset dy="3" input="SourceAlpha"/>
      <feGaussianBlur stdDeviation="3" result="blur"/>
      <feFlood flood-opacity="0.161"/>
      <feComposite operator="in" in2="blur"/>
      <feComposite in="SourceGraphic"/>
    </filter>
    <filter id="Trazado_7147" x="0" y="0" width="96" height="96" filterUnits="userSpaceOnUse">
      <feOffset dy="2" input="SourceAlpha"/>
      <feGaussianBlur stdDeviation="1" result="blur-2"/>
      <feFlood flood-opacity="0.161"/>
      <feComposite operator="in" in2="blur-2"/>
      <feComposite in="SourceGraphic"/>
    </filter>
    <clipPath id="clip-path">
      <g transform="matrix(1, 0, 0, 1, 0, 0)" filter="url(#Trazado_7146)">
        <path id="Trazado_7146-2" data-name="Trazado 7146" d="M44,0A44,44,0,1,1,0,44,44,44,0,0,1,44,0Z" transform="translate(1457 837)" fill="#fff" stroke="rgba(0,0,0,0.12)" stroke-width="1"/>
      </g>
    </clipPath>
    <filter id="Rectángulo_6440" x="67" y="31.804" width="70" height="70" filterUnits="userSpaceOnUse">
      <feOffset dy="2" input="SourceAlpha"/>
      <feGaussianBlur stdDeviation="1" result="blur-3"/>
      <feFlood flood-opacity="0.161"/>
      <feComposite operator="in" in2="blur-3"/>
      <feComposite in="SourceGraphic"/>
    </filter>
    <clipPath id="clip-path-2">
      <rect id="Rectángulo_6412" data-name="Rectángulo 6412" width="28" height="28" fill="rgba(0,0,0,0.6)"/>
    </clipPath>
  </defs>
  <g id="Ilustracion_Time_" data-name="Ilustracion Time " transform="translate(-1323 -702)">
    <g transform="matrix(1, 0, 0, 1, 1323, 702)" filter="url(#Trazado_7147)">
      <g id="Trazado_7147-2" data-name="Trazado 7147" transform="translate(3 1)" fill="#fff">
        <path d="M45,0A45,45,0,1,1,0,45,45,45,0,0,1,45,0Z" stroke="none"/>
        <path d="M 45 1 C 39.05960083007812 1 33.29741287231445 2.163215637207031 27.8735237121582 4.457328796386719 C 22.63414764404297 6.67340087890625 17.92851257324219 9.846099853515625 13.88729858398438 13.88729858398438 C 9.846099853515625 17.92851257324219 6.67340087890625 22.63414764404297 4.457328796386719 27.8735237121582 C 2.163215637207031 33.29741287231445 1 39.05960083007812 1 45 C 1 50.94039916992188 2.163215637207031 56.70258712768555 4.457328796386719 62.12647247314453 C 6.67340087890625 67.36585235595703 9.846099853515625 72.07148742675781 13.88729858398438 76.11270141601562 C 17.92851257324219 80.15390014648438 22.63414764404297 83.32659912109375 27.8735237121582 85.54267883300781 C 33.29741287231445 87.83678436279297 39.05960083007812 89 45 89 C 50.94039916992188 89 56.70258712768555 87.83678436279297 62.12647247314453 85.54267883300781 C 67.36585235595703 83.32659912109375 72.07148742675781 80.15390014648438 76.11270141601562 76.11270141601562 C 80.15390014648438 72.07148742675781 83.32659912109375 67.36585235595703 85.54267883300781 62.12647247314453 C 87.83678436279297 56.70258712768555 89 50.94039916992188 89 45 C 89 39.05960083007812 87.83678436279297 33.29741287231445 85.54267883300781 27.8735237121582 C 83.32659912109375 22.63414764404297 80.15390014648438 17.92851257324219 76.11270141601562 13.88729858398438 C 72.07148742675781 9.846099853515625 67.36585235595703 6.67340087890625 62.12647247314453 4.457328796386719 C 56.70258712768555 2.163215637207031 50.94039916992188 1 45 1 M 45 0 C 69.85281372070312 0 90 20.14718627929688 90 45 C 90 69.85281372070312 69.85281372070312 90 45 90 C 20.14718627929688 90 0 69.85281372070312 0 45 C 0 20.14718627929688 20.14718627929688 0 45 0 Z" stroke="none" fill="rgba(0,0,0,0.12)"/>
      </g>
    </g>
    <g id="Enmascarar_grupo_3864" data-name="Enmascarar grupo 3864" transform="translate(-130 -133)" clip-path="url(#clip-path)">
      <g id="Date" transform="translate(435 133.5)">
        <rect id="Rectángulo_6444" data-name="Rectángulo 6444" width="112" height="104" rx="2" transform="translate(1008 693.891)" fill="none"/>
        <path id="Trazado_7137" data-name="Trazado 7137" d="M18835.145,195h72.471" transform="translate(-17819.145 512.391)" fill="none" stroke="rgba(0,0,0,0.74)" stroke-linecap="round" stroke-width="1.51"/>
        <path id="Trazado_7138" data-name="Trazado 7138" d="M18835.145,195h8" transform="translate(-17818.645 524.891)" fill="none" stroke="rgba(0,0,0,0.6)" stroke-linecap="round" stroke-width="1.51"/>
        <path id="Trazado_7139" data-name="Trazado 7139" d="M18835.145,195h8" transform="translate(-17803.645 524.891)" fill="none" stroke="rgba(0,0,0,0.6)" stroke-linecap="round" stroke-width="1.51"/>
        <path id="Trazado_7140" data-name="Trazado 7140" d="M18835.145,195h8" transform="translate(-17789.645 524.891)" fill="none" stroke="rgba(0,0,0,0.6)" stroke-linecap="round" stroke-width="1.51"/>
        <path id="Trazado_7141" data-name="Trazado 7141" d="M18835.145,195h8" transform="translate(-17774.645 524.891)" fill="none" stroke="rgba(0,0,0,0.6)" stroke-linecap="round" stroke-width="1.51"/>
        <path id="Trazado_7142" data-name="Trazado 7142" d="M18835.145,195h8" transform="translate(-17760.645 524.891)" fill="none" stroke="rgba(0,0,0,0.6)" stroke-linecap="round" stroke-width="1.51"/>
        <path id="Trazado_7143" data-name="Trazado 7143" d="M18835.145,195h8" transform="translate(-17745.645 524.891)" fill="none" stroke="rgba(0,0,0,0.6)" stroke-linecap="round" stroke-width="1.51"/>
        <path id="Trazado_7144" data-name="Trazado 7144" d="M18835.145,195h8" transform="translate(-17731.645 524.891)" fill="none" stroke="rgba(0,0,0,0.6)" stroke-linecap="round" stroke-width="1.51"/>
        <g id="chevron_left_black_24dp_1_" data-name="chevron_left_black_24dp (1)" transform="translate(1116 716.891) rotate(180)">
          <path id="Trazado_7080" data-name="Trazado 7080" d="M0,0H18V18H0Z" fill="none"/>
          <path id="Trazado_7081" data-name="Trazado 7081" d="M13.7,7.085,12.616,6,8,10.616l4.616,4.616L13.7,14.148l-3.524-3.531Z" transform="translate(-2.069 -1.616)" fill="rgba(0,0,0,0.74)"/>
        </g>
        <g id="chevron_left_black_24dp_1_2" data-name="chevron_left_black_24dp (1)" transform="translate(1088.232 698.891)">
          <path id="Trazado_7080-2" data-name="Trazado 7080" d="M0,18H18V0H0Z" fill="none"/>
          <path id="Trazado_7081-2" data-name="Trazado 7081" d="M5.7,8.148,4.616,9.233,0,4.616,4.616,0,5.7,1.085,2.177,4.616Z" transform="translate(5.931 4.384)" fill="rgba(0,0,0,0.74)"/>
        </g>
        <text id="_1" data-name="1" transform="translate(1048 746.891)" fill="rgba(0,0,0,0.74)" font-size="8" font-family="Poppins-Medium, Poppins" font-weight="500"><tspan x="0" y="0">1</tspan></text>
        <text id="_8" data-name="8" transform="translate(1045 761.891)" fill="rgba(0,0,0,0.74)" font-size="8" font-family="Poppins-Medium, Poppins" font-weight="500"><tspan x="0" y="0">8</tspan></text>
        <text id="_15" data-name="15" transform="translate(1048 776.891)" fill="rgba(0,0,0,0.74)" font-size="8" font-family="Poppins-Medium, Poppins" font-weight="500"><tspan x="0" y="0">15</tspan></text>
        <text id="_22" data-name="22" transform="translate(1048 791.891)" fill="rgba(0,0,0,0.74)" font-size="8" font-family="Poppins-Medium, Poppins" font-weight="500"><tspan x="0" y="0">22</tspan></text>
        <text id="_0" data-name="0" transform="translate(1033 746.891)" fill="#fff" font-size="8" font-family="Poppins-Medium, Poppins" font-weight="500"><tspan x="0" y="0">0</tspan></text>
        <text id="_7" data-name="7" transform="translate(1032 761.891)" fill="rgba(0,0,0,0.74)" font-size="8" font-family="Poppins-Medium, Poppins" font-weight="500"><tspan x="0" y="0">7</tspan></text>
        <text id="_14" data-name="14" transform="translate(1033 776.891)" fill="rgba(0,0,0,0.74)" font-size="8" font-family="Poppins-Medium, Poppins" font-weight="500"><tspan x="0" y="0">14</tspan></text>
        <text id="_21" data-name="21" transform="translate(1033 791.891)" fill="rgba(0,0,0,0.74)" font-size="8" font-family="Poppins-Medium, Poppins" font-weight="500"><tspan x="0" y="0">21</tspan></text>
        <text id="_0-2" data-name="0" transform="translate(1018 746.891)" fill="#fff" font-size="8" font-family="Poppins-Medium, Poppins" font-weight="500"><tspan x="0" y="0">0</tspan></text>
        <text id="_6" data-name="6" transform="translate(1018 761.891)" fill="rgba(0,0,0,0.74)" font-size="8" font-family="Poppins-Medium, Poppins" font-weight="500"><tspan x="0" y="0">6</tspan></text>
        <text id="_13" data-name="13" transform="translate(1018 776.891)" fill="rgba(0,0,0,0.74)" font-size="8" font-family="Poppins-Medium, Poppins" font-weight="500"><tspan x="0" y="0">13</tspan></text>
        <text id="_20" data-name="20" transform="translate(1018 791.891)" fill="rgba(0,0,0,0.74)" font-size="8" font-family="Poppins-Medium, Poppins" font-weight="500"><tspan x="0" y="0">20</tspan></text>
        <text id="_2" data-name="2" transform="translate(1061 746.891)" fill="rgba(0,0,0,0.74)" font-size="8" font-family="Poppins-Medium, Poppins" font-weight="500"><tspan x="0" y="0">2</tspan></text>
        <text id="_9" data-name="9" transform="translate(1060 761.891)" fill="rgba(0,0,0,0.74)" font-size="8" font-family="Poppins-Medium, Poppins" font-weight="500"><tspan x="0" y="0">9</tspan></text>
        <text id="_16" data-name="16" transform="translate(1063 776.891)" fill="rgba(0,0,0,0.74)" font-size="8" font-family="Poppins-Medium, Poppins" font-weight="500"><tspan x="0" y="0">16</tspan></text>
        <text id="_23" data-name="23" transform="translate(1063 791.891)" fill="rgba(0,0,0,0.74)" font-size="8" font-family="Poppins-Medium, Poppins" font-weight="500"><tspan x="0" y="0">23</tspan></text>
        <text id="_10" data-name="10" transform="translate(1074 761.891)" fill="rgba(0,0,0,0.74)" font-size="8" font-family="Poppins-Medium, Poppins" font-weight="500"><tspan x="0" y="0">10</tspan></text>
        <text id="_17" data-name="17" transform="translate(1077 776.891)" fill="rgba(0,0,0,0.74)" font-size="8" font-family="Poppins-Medium, Poppins" font-weight="500"><tspan x="0" y="0">17</tspan></text>
        <text id="_24" data-name="24" transform="translate(1077 791.891)" fill="rgba(0,0,0,0.74)" font-size="8" font-family="Poppins-Medium, Poppins" font-weight="500"><tspan x="0" y="0">24</tspan></text>
        <text id="_4" data-name="4" transform="translate(1091 746.891)" fill="rgba(0,0,0,0.74)" font-size="8" font-family="Poppins-Medium, Poppins" font-weight="500"><tspan x="0" y="0">4</tspan></text>
        <text id="_11" data-name="11" transform="translate(1091 761.891)" fill="rgba(0,0,0,0.74)" font-size="8" font-family="Poppins-Medium, Poppins" font-weight="500"><tspan x="0" y="0">11</tspan></text>
        <text id="_18" data-name="18" transform="translate(1091 776.891)" fill="rgba(0,0,0,0.74)" font-size="8" font-family="Poppins-Medium, Poppins" font-weight="500"><tspan x="0" y="0">18</tspan></text>
        <text id="_25" data-name="25" transform="translate(1091 791.891)" fill="rgba(0,0,0,0.74)" font-size="8" font-family="Poppins-Medium, Poppins" font-weight="500"><tspan x="0" y="0">25</tspan></text>
        <text id="_5" data-name="5" transform="translate(1106 746.891)" fill="rgba(0,0,0,0.74)" font-size="8" font-family="Poppins-Medium, Poppins" font-weight="500"><tspan x="0" y="0">5</tspan></text>
        <text id="_12" data-name="12" transform="translate(1106 761.891)" fill="rgba(0,0,0,0.74)" font-size="8" font-family="Poppins-Medium, Poppins" font-weight="500"><tspan x="0" y="0">12</tspan></text>
        <text id="_19" data-name="19" transform="translate(1106 776.891)" fill="rgba(0,0,0,0.74)" font-size="8" font-family="Poppins-Medium, Poppins" font-weight="500"><tspan x="0" y="0">19</tspan></text>
        <text id="_26" data-name="26" transform="translate(1106 791.891)" fill="rgba(0,0,0,0.74)" font-size="8" font-family="Poppins-Medium, Poppins" font-weight="500"><tspan x="0" y="0">26</tspan></text>
        <circle id="Elipse_1169" data-name="Elipse 1169" cx="7" cy="7" r="7" transform="translate(1071 736.891)" fill="rgba(0,0,0,0.74)"/>
        <text id="_3" data-name="3" transform="translate(1076 746.891)" fill="#fff" font-size="8" font-family="Poppins-Medium, Poppins" font-weight="500"><tspan x="0" y="0">3</tspan></text>
        <path id="Trazado_7136" data-name="Trazado 7136" d="M19436,287V182.609h111.826V287" transform="translate(-18428 510.891)" fill="none"/>
      </g>
    </g>
    <g id="Ilustración_Time" data-name="Ilustración Time" transform="translate(304 -2.196)">
      <g id="hour" transform="translate(-186 12)">
        <g transform="matrix(1, 0, 0, 1, 1205, 692.2)" filter="url(#Rectángulo_6440)">
          <g id="Rectángulo_6440-2" data-name="Rectángulo 6440" transform="translate(134 32.8) rotate(90)" fill="#fff" stroke="rgba(0,0,0,0.12)" stroke-width="1">
            <rect width="64" height="64" rx="32" stroke="none"/>
            <rect x="0.5" y="0.5" width="63" height="63" rx="31.5" fill="none"/>
          </g>
        </g>
        <path id="Trazado_7126" data-name="Trazado 7126" d="M18835.141,195h59.613" transform="translate(-17558.504 551.551)" fill="none" stroke="rgba(0,0,0,0.12)" stroke-width="1.51"/>
        <text id="_16:00" data-name="16:00" transform="translate(1297 740)" fill="rgba(0,0,0,0.74)" font-size="8" font-family="Poppins-Medium, Poppins" font-weight="500"><tspan x="0" y="0">16:00</tspan></text>
        <g id="Grupo_3922" data-name="Grupo 3922" transform="translate(1292.85 750.72)">
          <g id="Grupo_3888" data-name="Grupo 3888" transform="translate(0.15 0.28)" clip-path="url(#clip-path-2)">
            <path id="Trazado_7057" data-name="Trazado 7057" d="M15.284,3.732a11.564,11.564,0,1,0,.022,0h-.022M15.3,24.547a9.251,9.251,0,1,1,9.25-9.252h0a9.248,9.248,0,0,1-9.246,9.25Z" transform="translate(-1.577 -1.769)" fill="rgba(0,0,0,0.6)"/>
            <path id="Trazado_7058" data-name="Trazado 7058" d="M21.819,12.692H20.047V19.78l6.2,3.722.886-1.451L21.819,18.9Z" transform="translate(-7.565 -5.057)" fill="rgba(0,0,0,0.6)"/>
          </g>
        </g>
      </g>
    </g>
  </g>
</svg>
