<svg xmlns="http://www.w3.org/2000/svg" xmlns:xlink="http://www.w3.org/1999/xlink" width="148.5" height="105.5" viewBox="0 0 148.5 105.5">
  <defs>
    <filter id="Rectángulo_6422" x="0" y="0" width="115" height="99" filterUnits="userSpaceOnUse">
      <feOffset dy="1" input="SourceAlpha"/>
      <feGaussianBlur stdDeviation="0.5" result="blur"/>
      <feFlood flood-opacity="0.161"/>
      <feComposite operator="in" in2="blur"/>
      <feComposite in="SourceGraphic"/>
    </filter>
    <filter id="Rectángulo_6440" x="78.5" y="35.5" width="70" height="70" filterUnits="userSpaceOnUse">
      <feOffset dy="2" input="SourceAlpha"/>
      <feGaussianBlur stdDeviation="1" result="blur-2"/>
      <feFlood flood-opacity="0.161"/>
      <feComposite operator="in" in2="blur-2"/>
      <feComposite in="SourceGraphic"/>
    </filter>
    <clipPath id="clip-path">
      <rect id="Rectángulo_6412" data-name="Rectángulo 6412" width="28" height="28" fill="rgba(0,0,0,0.6)"/>
    </clipPath>
  </defs>
  <g id="Ilustracion_Time" data-name="Ilustracion Time" transform="translate(-1445.5 -752.5)">
    <g id="Ilustracion_Date" data-name="Ilustracion Date" transform="translate(-1148 763)">
      <g id="Ilustracion_Combo" data-name="Ilustracion Combo" transform="translate(1571 -193)">
        <g transform="matrix(1, 0, 0, 1, 1022.5, 182.5)" filter="url(#Rectángulo_6422)">
          <g id="Rectángulo_6422-2" data-name="Rectángulo 6422" transform="translate(1.5 0.5)" fill="#fff" stroke="rgba(0,0,0,0.12)" stroke-width="1">
            <rect width="112" height="96" rx="2" stroke="none"/>
            <rect x="0.5" y="0.5" width="111" height="95" rx="1.5" fill="none"/>
          </g>
        </g>
      </g>
      <path id="Trazado_7190" data-name="Trazado 7190" d="M18835.145,195h64" transform="translate(-16232.145 -192.5)" fill="none" stroke="rgba(0,0,0,0.74)" stroke-linecap="round" stroke-width="1.51"/>
      <g id="Días_semana" data-name="Días semana" transform="translate(1587 -702.891)">
        <path id="Trazado_7138" data-name="Trazado 7138" d="M18835.145,195h8" transform="translate(-17818.645 524.891)" fill="none" stroke="rgba(0,0,0,0.6)" stroke-linecap="round" stroke-width="1.51"/>
        <path id="Trazado_7139" data-name="Trazado 7139" d="M18835.145,195h8" transform="translate(-17803.645 524.891)" fill="none" stroke="rgba(0,0,0,0.6)" stroke-linecap="round" stroke-width="1.51"/>
        <path id="Trazado_7140" data-name="Trazado 7140" d="M18835.145,195h8" transform="translate(-17789.645 524.891)" fill="none" stroke="rgba(0,0,0,0.6)" stroke-linecap="round" stroke-width="1.51"/>
        <path id="Trazado_7141" data-name="Trazado 7141" d="M18835.145,195h8" transform="translate(-17774.645 524.891)" fill="none" stroke="rgba(0,0,0,0.6)" stroke-linecap="round" stroke-width="1.51"/>
        <path id="Trazado_7142" data-name="Trazado 7142" d="M18835.145,195h8" transform="translate(-17760.645 524.891)" fill="none" stroke="rgba(0,0,0,0.6)" stroke-linecap="round" stroke-width="1.51"/>
        <path id="Trazado_7143" data-name="Trazado 7143" d="M18835.145,195h8" transform="translate(-17745.645 524.891)" fill="none" stroke="rgba(0,0,0,0.6)" stroke-linecap="round" stroke-width="1.51"/>
        <path id="Trazado_7144" data-name="Trazado 7144" d="M18835.145,195h8" transform="translate(-17731.645 524.891)" fill="none" stroke="rgba(0,0,0,0.6)" stroke-linecap="round" stroke-width="1.51"/>
      </g>
      <g id="chevron_left_black_24dp_1_" data-name="chevron_left_black_24dp (1)" transform="translate(2701.168 10.804) rotate(180)">
        <path id="Trazado_7080" data-name="Trazado 7080" d="M0,0H16V16H0Z" fill="none"/>
        <path id="Trazado_7081" data-name="Trazado 7081" d="M13.121,6.955,12.146,6,8,10.062l4.146,4.062.974-.955L9.956,10.062Z" transform="translate(-2.754 -2.062)" fill="rgba(0,0,0,0.6)"/>
      </g>
      <g id="chevron_left_black_24dp_1_2" data-name="chevron_left_black_24dp (1)" transform="translate(2675.232 -5.196)">
        <path id="Trazado_7080-2" data-name="Trazado 7080" d="M0,16H16V0H0Z" fill="none"/>
        <path id="Trazado_7081-2" data-name="Trazado 7081" d="M5.121,7.17l-.974.955L0,4.062,4.146,0l.974.955L1.956,4.062Z" transform="translate(5.246 3.938)" fill="rgba(0,0,0,0.6)"/>
      </g>
      <g id="n_" data-name="nº" transform="translate(1587 -710.891)">
        <text id="_1" data-name="1" transform="translate(1048 746.891)" fill="rgba(0,0,0,0.74)" font-size="8" font-family="Poppins-Medium, Poppins" font-weight="500"><tspan x="0" y="0">1</tspan></text>
        <text id="_8" data-name="8" transform="translate(1045 761.891)" fill="rgba(0,0,0,0.74)" font-size="8" font-family="Poppins-Medium, Poppins" font-weight="500"><tspan x="0" y="0">8</tspan></text>
        <text id="_15" data-name="15" transform="translate(1048 776.891)" fill="rgba(0,0,0,0.74)" font-size="8" font-family="Poppins-Medium, Poppins" font-weight="500"><tspan x="0" y="0">15</tspan></text>
        <text id="_0" data-name="0" transform="translate(1033 746.891)" fill="#fff" font-size="8" font-family="Poppins-Medium, Poppins" font-weight="500"><tspan x="0" y="0">0</tspan></text>
        <text id="_7" data-name="7" transform="translate(1032 761.891)" fill="rgba(0,0,0,0.74)" font-size="8" font-family="Poppins-Medium, Poppins" font-weight="500"><tspan x="0" y="0">7</tspan></text>
        <text id="_14" data-name="14" transform="translate(1033 776.891)" fill="rgba(0,0,0,0.74)" font-size="8" font-family="Poppins-Medium, Poppins" font-weight="500"><tspan x="0" y="0">14</tspan></text>
        <text id="_0-2" data-name="0" transform="translate(1018 746.891)" fill="#fff" font-size="8" font-family="Poppins-Medium, Poppins" font-weight="500"><tspan x="0" y="0">0</tspan></text>
        <text id="_6" data-name="6" transform="translate(1018 761.891)" fill="rgba(0,0,0,0.74)" font-size="8" font-family="Poppins-Medium, Poppins" font-weight="500"><tspan x="0" y="0">6</tspan></text>
        <text id="_13" data-name="13" transform="translate(1018 776.891)" fill="rgba(0,0,0,0.74)" font-size="8" font-family="Poppins-Medium, Poppins" font-weight="500"><tspan x="0" y="0">13</tspan></text>
        <text id="_2" data-name="2" transform="translate(1061 746.891)" fill="rgba(0,0,0,0.74)" font-size="8" font-family="Poppins-Medium, Poppins" font-weight="500"><tspan x="0" y="0">2</tspan></text>
        <text id="_9" data-name="9" transform="translate(1060 761.891)" fill="rgba(0,0,0,0.74)" font-size="8" font-family="Poppins-Medium, Poppins" font-weight="500"><tspan x="0" y="0">9</tspan></text>
        <text id="_16" data-name="16" transform="translate(1063 776.891)" fill="rgba(0,0,0,0.74)" font-size="8" font-family="Poppins-Medium, Poppins" font-weight="500"><tspan x="0" y="0">16</tspan></text>
        <text id="_." data-name="." transform="translate(1020 786.891)" fill="rgba(0,0,0,0.74)" font-size="8" font-family="Poppins-Medium, Poppins" font-weight="500"><tspan x="0" y="0">.</tspan></text>
        <text id="_10" data-name="10" transform="translate(1074 761.891)" fill="rgba(0,0,0,0.74)" font-size="8" font-family="Poppins-Medium, Poppins" font-weight="500"><tspan x="0" y="0">10</tspan></text>
        <text id="_17" data-name="17" transform="translate(1077 776.891)" fill="rgba(0,0,0,0.74)" font-size="8" font-family="Poppins-Medium, Poppins" font-weight="500"><tspan x="0" y="0">17</tspan></text>
        <text id="_.-2" data-name="." transform="translate(1036 786.891)" fill="rgba(0,0,0,0.74)" font-size="8" font-family="Poppins-Medium, Poppins" font-weight="500"><tspan x="0" y="0">.</tspan></text>
        <text id="_4" data-name="4" transform="translate(1091 746.891)" fill="rgba(0,0,0,0.74)" font-size="8" font-family="Poppins-Medium, Poppins" font-weight="500"><tspan x="0" y="0">4</tspan></text>
        <text id="_11" data-name="11" transform="translate(1091 761.891)" fill="rgba(0,0,0,0.74)" font-size="8" font-family="Poppins-Medium, Poppins" font-weight="500"><tspan x="0" y="0">11</tspan></text>
        <text id="_18" data-name="18" transform="translate(1091 776.891)" fill="rgba(0,0,0,0.74)" font-size="8" font-family="Poppins-Medium, Poppins" font-weight="500"><tspan x="0" y="0">18</tspan></text>
        <text id="_.-3" data-name="." transform="translate(1051 786.891)" fill="rgba(0,0,0,0.74)" font-size="8" font-family="Poppins-Medium, Poppins" font-weight="500"><tspan x="0" y="0">.</tspan></text>
        <text id="_5" data-name="5" transform="translate(1106 746.891)" fill="rgba(0,0,0,0.74)" font-size="8" font-family="Poppins-Medium, Poppins" font-weight="500"><tspan x="0" y="0">5</tspan></text>
        <text id="_12" data-name="12" transform="translate(1106 761.891)" fill="rgba(0,0,0,0.74)" font-size="8" font-family="Poppins-Medium, Poppins" font-weight="500"><tspan x="0" y="0">12</tspan></text>
        <text id="_19" data-name="19" transform="translate(1106 776.891)" fill="rgba(0,0,0,0.74)" font-size="8" font-family="Poppins-Medium, Poppins" font-weight="500"><tspan x="0" y="0">19</tspan></text>
      </g>
      <circle id="Elipse_1172" data-name="Elipse 1172" cx="7" cy="7" r="7" transform="translate(2658 26)" fill="rgba(0,0,0,0.74)"/>
      <text id="_3" data-name="3" transform="translate(2663 36)" fill="#fff" font-size="8" font-family="Poppins-Medium, Poppins" font-weight="500"><tspan x="0" y="0">3</tspan></text>
    </g>
    <g id="Ilustración_Time" data-name="Ilustración Time" transform="translate(438 52)">
      <g id="hour" transform="translate(-186 12)">
        <g transform="matrix(1, 0, 0, 1, 1193.5, 688.5)" filter="url(#Rectángulo_6440)">
          <g id="Rectángulo_6440-2" data-name="Rectángulo 6440" transform="translate(145.5 36.5) rotate(90)" fill="#fff" stroke="rgba(0,0,0,0.12)" stroke-width="1">
            <rect width="64" height="64" rx="32" stroke="none"/>
            <rect x="0.5" y="0.5" width="63" height="63" rx="31.5" fill="none"/>
          </g>
        </g>
        <path id="Trazado_7126" data-name="Trazado 7126" d="M18835.141,195h59.613" transform="translate(-17558.504 551.551)" fill="none" stroke="rgba(0,0,0,0.12)" stroke-width="1.51"/>
        <text id="_16:00" data-name="16:00" transform="translate(1297 740)" fill="rgba(0,0,0,0.74)" font-size="8" font-family="Poppins-Medium, Poppins" font-weight="500"><tspan x="0" y="0">16:00</tspan></text>
        <g id="Grupo_3922" data-name="Grupo 3922" transform="translate(1292.85 750.72)">
          <g id="Grupo_3888" data-name="Grupo 3888" transform="translate(0.15 0.28)" clip-path="url(#clip-path)">
            <path id="Trazado_7057" data-name="Trazado 7057" d="M15.284,3.732a11.564,11.564,0,1,0,.022,0h-.022M15.3,24.547a9.251,9.251,0,1,1,9.25-9.252h0a9.248,9.248,0,0,1-9.246,9.25Z" transform="translate(-1.577 -1.769)" fill="rgba(0,0,0,0.6)"/>
            <path id="Trazado_7058" data-name="Trazado 7058" d="M21.819,12.692H20.047V19.78l6.2,3.722.886-1.451L21.819,18.9Z" transform="translate(-7.565 -5.057)" fill="rgba(0,0,0,0.6)"/>
          </g>
        </g>
      </g>
    </g>
  </g>
</svg>
