<svg xmlns="http://www.w3.org/2000/svg" xmlns:xlink="http://www.w3.org/1999/xlink" width="163" height="37" viewBox="0 0 163 37">
  <defs>
    <filter id="Rect치ngulo_6445" x="0" y="0" width="163" height="37" filterUnits="userSpaceOnUse">
      <feOffset dy="1" input="SourceAlpha"/>
      <feGaussianBlur stdDeviation="0.5" result="blur"/>
      <feFlood flood-opacity="0.161"/>
      <feComposite operator="in" in2="blur"/>
      <feComposite in="SourceGraphic"/>
    </filter>
  </defs>
  <g id="Ilustracion_email" data-name="Ilustracion email" transform="translate(-681.5 -451.5)">
    <g transform="matrix(1, 0, 0, 1, 681.5, 451.5)" filter="url(#Rect치ngulo_6445)">
      <g id="Rect치ngulo_6445-2" data-name="Rect치ngulo 6445" transform="translate(1.5 0.5)" fill="#fff" stroke="rgba(0,0,0,0.12)" stroke-width="1">
        <rect width="160" height="34" rx="2" stroke="none"/>
        <rect x="0.5" y="0.5" width="159" height="33" rx="1.5" fill="none"/>
      </g>
    </g>
    <path id="Trazado_7106" data-name="Trazado 7106" d="M18835.145,195h16" transform="translate(-18144.145 265)" fill="none" stroke="rgba(0,0,0,0.6)" stroke-linecap="round" stroke-width="1.51"/>
    <path id="Trazado_7162" data-name="Trazado 7162" d="M18835.145,195h42" transform="translate(-18144.145 281)" fill="none" stroke="rgba(0,0,0,0.74)" stroke-linecap="round" stroke-width="1.51"/>
    <path id="Trazado_7163" data-name="Trazado 7163" d="M18835.143,195h40" transform="translate(-18085.145 281)" fill="none" stroke="rgba(0,0,0,0.74)" stroke-linecap="round" stroke-width="1.51"/>
    <text id="_" data-name="@" transform="translate(735 478)" fill="rgba(0,0,0,0.74)" font-size="13" font-family="Poppins-Medium, Poppins" font-weight="500"><tspan x="0" y="0">@</tspan></text>
    <text id="_2" data-name="*" transform="translate(711 466)" fill="rgba(0,0,0,0.74)" font-size="12" font-family="Poppins-Medium, Poppins" font-weight="500"><tspan x="0" y="0">*</tspan></text>
    <g id="email-24px" transform="translate(822.976 468)">
      <path id="Trazado_7164" data-name="Trazado 7164" d="M0,0H14V14H0Z" fill="none"/>
      <path id="Trazado_7165" data-name="Trazado 7165" d="M11.785,4h-8.7a1.031,1.031,0,0,0-1.082.968L2,10.777a1.036,1.036,0,0,0,1.087.968h8.7a1.036,1.036,0,0,0,1.087-.968V4.968A1.036,1.036,0,0,0,11.785,4Zm0,1.936L7.436,8.357,3.087,5.936V4.968l4.349,2.42,4.349-2.42Z" transform="translate(-0.436 -0.873)" fill="rgba(0,0,0,0.6)"/>
    </g>
  </g>
</svg>
