<svg xmlns="http://www.w3.org/2000/svg" xmlns:xlink="http://www.w3.org/1999/xlink" width="133" height="91" viewBox="0 0 133 91">
  <defs>
    <filter id="Rectángulo_6441" x="0" y="0" width="133" height="91" filterUnits="userSpaceOnUse">
      <feOffset dy="1" input="SourceAlpha"/>
      <feGaussianBlur stdDeviation="0.5" result="blur"/>
      <feFlood flood-opacity="0.161"/>
      <feComposite operator="in" in2="blur"/>
      <feComposite in="SourceGraphic"/>
    </filter>
  </defs>
  <g id="Gallery" transform="translate(-69.5 -15.5)">
    <g id="Ilustracion_Gallery" data-name="Ilustracion Gallery">
      <g id="Ilustraion_Gallery" data-name="Ilustraion Gallery" transform="translate(-5487 -93)">
        <g id="Ilustracion_Slide_Toggle" data-name="Ilustracion Slide Toggle" transform="translate(5165 -600)">
          <g transform="matrix(1, 0, 0, 1, 391.5, 708.5)" filter="url(#Rectángulo_6441)">
            <g id="Rectángulo_6441-2" data-name="Rectángulo 6441" transform="translate(1.5 0.5)" fill="#fff" stroke="rgba(0,0,0,0.12)" stroke-width="1">
              <rect width="130" height="88" rx="2" stroke="none"/>
              <rect x="0.5" y="0.5" width="129" height="87" rx="1.5" fill="none"/>
            </g>
          </g>
        </g>
        <g id="imagen" transform="translate(40.375 -5.164)">
          <path id="Trazado_7227" data-name="Trazado 7227" d="M5623.689,160.321l8.92-7.654,12.359,14.626" transform="translate(-40.408 -11.906)" fill="none" stroke="rgba(0,0,0,0.74)" stroke-linecap="round" stroke-width="1.5"/>
          <g id="Elipse_1180" data-name="Elipse 1180" transform="translate(5579.558 134.164)" fill="none" stroke="rgba(0,0,0,0.74)" stroke-width="1.5">
            <circle cx="2.953" cy="2.953" r="2.953" stroke="none"/>
            <circle cx="2.953" cy="2.953" r="2.203" fill="none"/>
          </g>
          <path id="Trazado_7226" data-name="Trazado 7226" d="M5558.6,169.856l.151-.129,15.367-13.06L5586,169.856" transform="translate(1.569 -14.47)" fill="none" stroke="rgba(0,0,0,0.74)" stroke-linecap="round" stroke-width="1.5"/>
        </g>
        <g id="Rectángulo_6485" data-name="Rectángulo 6485" transform="translate(5566 124)" fill="none" stroke="rgba(0,0,0,0.16)" stroke-width="1">
          <rect width="114" height="28" rx="1" stroke="none"/>
          <rect x="0.5" y="0.5" width="113" height="27" rx="0.5" fill="none"/>
        </g>
        <g id="Grupo_3963" data-name="Grupo 3963" transform="translate(-151 100)">
          <g id="Rectángulo_6488" data-name="Rectángulo 6488" transform="translate(5717 60)" fill="none" stroke="rgba(0,0,0,0.16)" stroke-width="1">
            <rect width="32" height="22" rx="1" stroke="none"/>
            <rect x="0.5" y="0.5" width="31" height="21" rx="0.5" fill="none"/>
          </g>
          <g id="Grupo_3957" data-name="Grupo 3957" transform="translate(5717.989 66.381)">
            <g id="Grupo_3958" data-name="Grupo 3958" transform="translate(0.577 0.238)">
              <path id="Trazado_7233" data-name="Trazado 7233" d="M12.9,8.78l5.825-4.947,8.23,9.632" transform="translate(1.971 0.375)" fill="none" stroke="rgba(0,0,0,0.74)" stroke-linecap="round" stroke-width="1"/>
              <path id="Trazado_7234" data-name="Trazado 7234" d="M12.875.27a1.923,1.923,0,1,1-1.923,1.923A1.922,1.922,0,0,1,12.875.27Z" transform="translate(1.586 -0.27)" fill="none"/>
              <circle id="Elipse_1181" data-name="Elipse 1181" cx="1.435" cy="1.435" r="1.435" transform="translate(13.026 0.489)" fill="none" stroke="rgba(0,0,0,0.74)" stroke-width="1"/>
              <path id="Trazado_7235" data-name="Trazado 7235" d="M.345,13.306l.149-.126,9.853-8.567,7.742,8.694" transform="translate(-0.345 0.534)" fill="none" stroke="rgba(0,0,0,0.74)" stroke-linecap="round" stroke-width="1"/>
            </g>
          </g>
        </g>
        <g id="Grupo_3970" data-name="Grupo 3970" transform="translate(-69 100)">
          <g id="Rectángulo_6488-2" data-name="Rectángulo 6488" transform="translate(5717 60)" fill="none" stroke="rgba(0,0,0,0.16)" stroke-width="1">
            <rect width="32" height="22" rx="1" stroke="none"/>
            <rect x="0.5" y="0.5" width="31" height="21" rx="0.5" fill="none"/>
          </g>
          <g id="Grupo_3957-2" data-name="Grupo 3957" transform="translate(5717.989 66.381)">
            <g id="Grupo_3958-2" data-name="Grupo 3958" transform="translate(0.577 0.238)">
              <path id="Trazado_7233-2" data-name="Trazado 7233" d="M12.9,8.78l5.825-4.947,8.23,9.632" transform="translate(1.971 0.375)" fill="none" stroke="rgba(0,0,0,0.74)" stroke-linecap="round" stroke-width="1"/>
              <path id="Trazado_7234-2" data-name="Trazado 7234" d="M12.875.27a1.923,1.923,0,1,1-1.923,1.923A1.922,1.922,0,0,1,12.875.27Z" transform="translate(1.586 -0.27)" fill="none"/>
              <circle id="Elipse_1181-2" data-name="Elipse 1181" cx="1.435" cy="1.435" r="1.435" transform="translate(13.026 0.489)" fill="none" stroke="rgba(0,0,0,0.74)" stroke-width="1"/>
              <path id="Trazado_7235-2" data-name="Trazado 7235" d="M.345,13.306l.149-.126,9.853-8.567,7.742,8.694" transform="translate(-0.345 0.534)" fill="none" stroke="rgba(0,0,0,0.74)" stroke-linecap="round" stroke-width="1"/>
            </g>
          </g>
        </g>
        <g id="Grupo_3971" data-name="Grupo 3971" transform="translate(-110 100)">
          <g id="Rectángulo_6488-3" data-name="Rectángulo 6488" transform="translate(5717 60)" fill="none" stroke="rgba(0,0,0,0.16)" stroke-width="1">
            <rect width="32" height="22" rx="1" stroke="none"/>
            <rect x="0.5" y="0.5" width="31" height="21" rx="0.5" fill="none"/>
          </g>
          <g id="Grupo_3957-3" data-name="Grupo 3957" transform="translate(5717.989 66.381)">
            <g id="Grupo_3958-3" data-name="Grupo 3958" transform="translate(0.577 0.238)">
              <path id="Trazado_7233-3" data-name="Trazado 7233" d="M12.9,8.78l5.825-4.947,8.23,9.632" transform="translate(1.971 0.375)" fill="none" stroke="rgba(0,0,0,0.74)" stroke-linecap="round" stroke-width="1"/>
              <path id="Trazado_7234-3" data-name="Trazado 7234" d="M12.875.27a1.923,1.923,0,1,1-1.923,1.923A1.922,1.922,0,0,1,12.875.27Z" transform="translate(1.586 -0.27)" fill="none"/>
              <circle id="Elipse_1181-3" data-name="Elipse 1181" cx="1.435" cy="1.435" r="1.435" transform="translate(13.026 0.489)" fill="none" stroke="rgba(0,0,0,0.74)" stroke-width="1"/>
              <path id="Trazado_7235-3" data-name="Trazado 7235" d="M.345,13.306l.149-.126,9.853-8.567,7.742,8.694" transform="translate(-0.345 0.534)" fill="none" stroke="rgba(0,0,0,0.74)" stroke-linecap="round" stroke-width="1"/>
            </g>
          </g>
        </g>
      </g>
    </g>
  </g>
</svg>
