<svg xmlns="http://www.w3.org/2000/svg" xmlns:xlink="http://www.w3.org/1999/xlink" width="133" height="91" viewBox="0 0 133 91">
  <defs>
    <filter id="Trazado_7258" x="0" y="0" width="133" height="91" filterUnits="userSpaceOnUse">
      <feOffset dy="1" input="SourceAlpha"/>
      <feGaussianBlur stdDeviation="0.5" result="blur"/>
      <feFlood flood-opacity="0.161"/>
      <feComposite operator="in" in2="blur"/>
      <feComposite in="SourceGraphic"/>
    </filter>
  </defs>
  <g id="Ilustraion_image" data-name="Ilustraion image" transform="translate(-5556.5 -108.5)">
    <g transform="matrix(1, 0, 0, 1, 5556.5, 108.5)" filter="url(#Trazado_7258)">
      <path id="Trazado_7258-2" data-name="Trazado 7258" d="M2,0H128a2,2,0,0,1,2,2V86a2,2,0,0,1-2,2H2a2,2,0,0,1-2-2V2A2,2,0,0,1,2,0Z" transform="translate(1.5 0.5)" fill="#fff"/>
    </g>
    <g id="Rectángulo_6441" data-name="Rectángulo 6441" transform="translate(5558 109)" fill="none" stroke="rgba(0,0,0,0.12)" stroke-width="1">
      <rect width="130" height="88" rx="2" stroke="none"/>
      <rect x="0.5" y="0.5" width="129" height="87" rx="1.5" fill="none"/>
    </g>
    <g id="ilustracion" transform="translate(0.875)">
      <path id="Trazado_7226" data-name="Trazado 7226" d="M5558.6,195.391l.431-.378,43.631-38.346,33.742,38.724" transform="translate(1.029 -0.484)" fill="none" stroke="rgba(0,0,0,0.74)" stroke-linecap="round" stroke-width="2"/>
      <path id="Trazado_7227" data-name="Trazado 7227" d="M5623.833,175.984l26.5-23.318,35.9,42.818" transform="translate(-0.875 -0.484)" fill="none" stroke="rgba(0,0,0,0.74)" stroke-linecap="round" stroke-width="2"/>
      <g id="Elipse_1180" data-name="Elipse 1180" transform="translate(5614.125 134)" fill="#fff" stroke="rgba(0,0,0,0.74)" stroke-width="2">
        <circle cx="8.5" cy="8.5" r="8.5" stroke="none"/>
        <circle cx="8.5" cy="8.5" r="7.5" fill="none"/>
      </g>
    </g>
  </g>
</svg>
