<svg xmlns="http://www.w3.org/2000/svg" xmlns:xlink="http://www.w3.org/1999/xlink" width="163" height="37" viewBox="0 0 163 37">
  <defs>
    <filter id="Rect치ngulo_6445" x="0" y="0" width="163" height="37" filterUnits="userSpaceOnUse">
      <feOffset dy="1" input="SourceAlpha"/>
      <feGaussianBlur stdDeviation="0.5" result="blur"/>
      <feFlood flood-opacity="0.161"/>
      <feComposite operator="in" in2="blur"/>
      <feComposite in="SourceGraphic"/>
    </filter>
  </defs>
  <g id="Ilustracion_Integer" data-name="Ilustracion Integer" transform="translate(-685.5 -472.5)">
    <g id="Integer" transform="translate(4 21)">
      <g transform="matrix(1, 0, 0, 1, 681.5, 451.5)" filter="url(#Rect치ngulo_6445)">
        <g id="Rect치ngulo_6445-2" data-name="Rect치ngulo 6445" transform="translate(1.5 0.5)" fill="#fff" stroke="rgba(0,0,0,0.12)" stroke-width="1">
          <rect width="160" height="34" rx="2" stroke="none"/>
          <rect x="0.5" y="0.5" width="159" height="33" rx="1.5" fill="none"/>
        </g>
      </g>
      <path id="Trazado_7106" data-name="Trazado 7106" d="M18835.145,195h16" transform="translate(-18144.145 265)" fill="none" stroke="rgba(0,0,0,0.6)" stroke-linecap="round" stroke-width="1.51"/>
      <text id="_1" data-name="1" transform="translate(691 479)" fill="rgba(0,0,0,0.74)" font-size="14" font-family="Poppins-Bold, Poppins" font-weight="700"><tspan x="0" y="0">1</tspan></text>
      <text id="_" data-name="*" transform="translate(711 466)" fill="rgba(0,0,0,0.74)" font-size="12" font-family="Poppins-Medium, Poppins" font-weight="500"><tspan x="0" y="0">*</tspan></text>
    </g>
    <g id="chevron_left_black_24dp_1_" data-name="chevron_left_black_24dp (1)" transform="translate(841 486) rotate(90)">
      <path id="Trazado_7080" data-name="Trazado 7080" d="M0,0H12V12H0Z" fill="none"/>
      <path id="Trazado_7157" data-name="Trazado 7157" d="M1116.574,202.871h6.939L1121.639,201l-1.542-1.542Z" transform="translate(-195.456 1125.574) rotate(-90)" fill="rgba(0,0,0,0.6)"/>
    </g>
    <g id="chevron_left_black_24dp_1_2" data-name="chevron_left_black_24dp (1)" transform="translate(829 504) rotate(-90)">
      <path id="Trazado_7080-2" data-name="Trazado 7080" d="M0,0H12V12H0Z" fill="none"/>
      <path id="Trazado_7156" data-name="Trazado 7156" d="M1116.574,202.871h6.939L1121.639,201l-1.542-1.542Z" transform="translate(-194.871 1126.515) rotate(-90)" fill="rgba(0,0,0,0.6)"/>
    </g>
  </g>
</svg>
