<svg xmlns="http://www.w3.org/2000/svg" xmlns:xlink="http://www.w3.org/1999/xlink" width="82.5" height="96.5" viewBox="0 0 82.5 96.5">
  <defs>
    <filter id="Rectángulo_6421" x="6.5" y="5.5" width="76" height="91" filterUnits="userSpaceOnUse">
      <feOffset dy="1" input="SourceAlpha"/>
      <feGaussianBlur stdDeviation="0.5" result="blur"/>
      <feFlood flood-opacity="0.161"/>
      <feComposite operator="in" in2="blur"/>
      <feComposite in="SourceGraphic"/>
    </filter>
  </defs>
  <g id="Ilustración_Overview" data-name="Ilustración Overview" transform="translate(-410 -166.983)">
    <g transform="matrix(1, 0, 0, 1, 410, 166.98)" filter="url(#Rectángulo_6421)">
      <g id="Rectángulo_6421-2" data-name="Rectángulo 6421" transform="translate(8 6)" fill="#fff" stroke="rgba(0,0,0,0.12)" stroke-width="1">
        <rect width="73" height="88" rx="2" stroke="none"/>
        <rect x="0.5" y="0.5" width="72" height="87" rx="1.5" fill="none"/>
      </g>
    </g>
    <g id="Rectángulo_6420" data-name="Rectángulo 6420" transform="translate(410 166.983)" fill="#fff" stroke="rgba(0,0,0,0.12)" stroke-width="1">
      <rect width="74" height="88" rx="2" stroke="none"/>
      <rect x="0.5" y="0.5" width="73" height="87" rx="1.5" fill="none"/>
    </g>
    <g id="search-24px" transform="translate(429 178.983)">
      <path id="Trazado_7066" data-name="Trazado 7066" d="M0,0H36V36H0Z" fill="none"/>
      <path id="Trazado_7067" data-name="Trazado 7067" d="M21.2,19.015h-1.15l-.408-.393a9.478,9.478,0,1,0-1.019,1.019l.393.408V21.2l7.28,7.265,2.169-2.169Zm-8.735,0a6.552,6.552,0,1,1,6.552-6.552A6.543,6.543,0,0,1,12.463,19.015Z" transform="translate(1.855 1.855)" fill="rgba(0,0,0,0.74)"/>
    </g>
    <path id="Trazado_7068" data-name="Trazado 7068" d="M18521.26,241h47.066" transform="translate(-18097.932 -16.08)" fill="none" stroke="rgba(0,0,0,0.74)" stroke-linecap="round" stroke-width="1.5"/>
    <path id="Trazado_7069" data-name="Trazado 7069" d="M18521.26,241h47.066" transform="translate(-18097.932 -8.726)" fill="none" stroke="rgba(0,0,0,0.74)" stroke-linecap="round" stroke-width="1.5"/>
  </g>
</svg>
