<svg xmlns="http://www.w3.org/2000/svg" xmlns:xlink="http://www.w3.org/1999/xlink" width="133" height="91" viewBox="0 0 133 91">
  <defs>
    <filter id="Rectángulo_6441" x="0" y="0" width="133" height="91" filterUnits="userSpaceOnUse">
      <feOffset dy="1" input="SourceAlpha"/>
      <feGaussianBlur stdDeviation="0.5" result="blur"/>
      <feFlood flood-opacity="0.161"/>
      <feComposite operator="in" in2="blur"/>
      <feComposite in="SourceGraphic"/>
    </filter>
  </defs>
  <g id="Ilustracion_Slide_Toggle" data-name="Ilustracion Slide Toggle" transform="translate(-391.5 -708.5)">
    <g transform="matrix(1, 0, 0, 1, 391.5, 708.5)" filter="url(#Rectángulo_6441)">
      <g id="Rectángulo_6441-2" data-name="Rectángulo 6441" transform="translate(1.5 0.5)" fill="#fff" stroke="rgba(0,0,0,0.12)" stroke-width="1">
        <rect width="130" height="88" rx="2" stroke="none"/>
        <rect x="0.5" y="0.5" width="129" height="87" rx="1.5" fill="none"/>
      </g>
    </g>
    <g id="Grupo_3924" data-name="Grupo 3924" transform="translate(438 747)">
      <path id="Trazado_7084" data-name="Trazado 7084" d="M18835.145,195h64" transform="translate(-18835.145 -195)" fill="none" stroke="rgba(0,0,0,0.74)" stroke-linecap="round" stroke-width="1.51"/>
    </g>
    <g id="Grupo_3930" data-name="Grupo 3930" transform="translate(438 773)">
      <path id="Trazado_7084-2" data-name="Trazado 7084" d="M18835.145,195h64" transform="translate(-18835.145 -195)" fill="none" stroke="rgba(0,0,0,0.74)" stroke-linecap="round" stroke-width="1.51"/>
    </g>
    <g id="Grupo_3928" data-name="Grupo 3928" transform="translate(405 725)">
      <path id="Trazado_7084-3" data-name="Trazado 7084" d="M18835.145,195h40" transform="translate(-18835.145 -195)" fill="none" stroke="rgba(0,0,0,0.6)" stroke-linecap="round" stroke-width="1.51"/>
    </g>
    <g id="Grupo_3927" data-name="Grupo 3927" transform="translate(-2 10.889)">
      <rect id="Rectángulo_6442" data-name="Rectángulo 6442" width="15" height="7" rx="3.5" transform="translate(407 732.111)" fill="rgba(0,0,0,0.6)"/>
      <circle id="Elipse_1168" data-name="Elipse 1168" cx="5.5" cy="5.5" r="5.5" transform="translate(416 730.111)" fill="#363636"/>
    </g>
    <g id="Grupo_3931" data-name="Grupo 3931" transform="translate(832 1508.111) rotate(180)">
      <rect id="Rectángulo_6442-2" data-name="Rectángulo 6442" width="15" height="7" rx="3.5" transform="translate(407 732.111)" fill="rgba(0,0,0,0.6)"/>
      <circle id="Elipse_1168-2" data-name="Elipse 1168" cx="5.5" cy="5.5" r="5.5" transform="translate(416 730.111)" fill="#bcbcbc"/>
    </g>
  </g>
</svg>
