<svg xmlns="http://www.w3.org/2000/svg" xmlns:xlink="http://www.w3.org/1999/xlink" width="131" height="99" viewBox="0 0 131 99">
  <defs>
    <filter id="Trazado_7172" x="0" y="0" width="131" height="99" filterUnits="userSpaceOnUse">
      <feOffset dy="1" input="SourceAlpha"/>
      <feGaussianBlur stdDeviation="0.5" result="blur"/>
      <feFlood flood-opacity="0.161"/>
      <feComposite operator="in" in2="blur"/>
      <feComposite in="SourceGraphic"/>
    </filter>
  </defs>
  <g id="Ilustracion_SnackBar" data-name="Ilustracion  SnackBar" transform="translate(-1022.5 -442.5)">
    <g transform="matrix(1, 0, 0, 1, 1022.5, 442.5)" filter="url(#Trazado_7172)">
      <g id="Trazado_7172-2" data-name="Trazado 7172" transform="translate(1.5 0.5)" fill="#fff">
        <path d="M2.286,0H125.714A2.157,2.157,0,0,1,128,2V94a2.157,2.157,0,0,1-2.286,2H2.286A2.157,2.157,0,0,1,0,94V2A2.157,2.157,0,0,1,2.286,0Z" stroke="none"/>
        <path d="M 2.285713195800781 1 C 1.588783264160156 1 1 1.45794677734375 1 2 L 1 94 C 1 94.54205322265625 1.588783264160156 95 2.285713195800781 95 L 125.7143020629883 95 C 126.4112167358398 95 127 94.54205322265625 127 94 L 127 2 C 127 1.45794677734375 126.4112167358398 1 125.7143020629883 1 L 2.285713195800781 1 M 2.285713195800781 0 L 125.7143020629883 0 C 126.9766464233398 0 128 0.8954315185546875 128 2 L 128 94 C 128 95.10456848144531 126.9766464233398 96 125.7143020629883 96 L 2.285713195800781 96 C 1.023353576660156 96 0 95.10456848144531 0 94 L 0 2 C 0 0.8954315185546875 1.023353576660156 0 2.285713195800781 0 Z" stroke="none" fill="rgba(0,0,0,0.12)"/>
      </g>
    </g>
    <path id="Trazado_7110" data-name="Trazado 7110" d="M18835.145,195h112" transform="translate(-17803.143 271)" fill="none" stroke="rgba(0,0,0,0.12)" stroke-linecap="round" stroke-width="1.51"/>
    <path id="Trazado_7111" data-name="Trazado 7111" d="M18835.145,195h40" transform="translate(-17803.145 261)" fill="none" stroke="rgba(0,0,0,0.74)" stroke-linecap="round" stroke-width="1.51"/>
    <g id="Grupo_3944" data-name="Grupo 3944" transform="translate(1131.166 448.292)">
      <path id="Trazado_7181" data-name="Trazado 7181" d="M5.484,9.683,2.8,7,5.484,4.316,4.667,3.5,1.167,7l3.5,3.5Zm3.033,0L11.2,7,8.517,4.316,9.334,3.5l3.5,3.5-3.5,3.5Z" fill="rgba(0,0,0,0.6)"/>
      <rect id="Rectángulo_6471" data-name="Rectángulo 6471" width="10.508" height="1.055" transform="translate(5.209 11.9) rotate(-75.924)" fill="rgba(0,0,0,0.6)"/>
    </g>
    <g id="item_3" data-name="item 3" transform="translate(1055.283 523)">
      <rect id="Rectángulo_6424" data-name="Rectángulo 6424" width="66" height="12" rx="1" transform="translate(-0.283)" fill="rgba(0,0,0,0.12)"/>
      <path id="Trazado_7084" data-name="Trazado 7084" d="M18835.145,195h32" transform="translate(-18827.428 -189)" fill="none" stroke="rgba(0,0,0,0.74)" stroke-linecap="round" stroke-width="1.51"/>
      <g id="Botones" transform="translate(-1018.283 -514.597)">
        <g id="Rectángulo_6435" data-name="Rectángulo 6435" transform="translate(1065 517.597)" fill="#fff" stroke="rgba(0,0,0,0.74)" stroke-width="1">
          <rect width="14" height="6" rx="1" stroke="none"/>
          <rect x="0.5" y="0.5" width="13" height="5" rx="0.5" fill="none"/>
        </g>
        <path id="Trazado_7112" data-name="Trazado 7112" d="M18835.145,195h6.025" transform="translate(-17766.156 325.597)" fill="none" stroke="rgba(0,0,0,0.74)" stroke-linecap="round" stroke-width="1.51"/>
      </g>
    </g>
  </g>
</svg>
