<svg xmlns="http://www.w3.org/2000/svg" xmlns:xlink="http://www.w3.org/1999/xlink" width="115" height="83" viewBox="0 0 115 83">
  <defs>
    <filter id="Rect치ngulo_6434" x="0" y="0" width="115" height="83" filterUnits="userSpaceOnUse">
      <feOffset dy="1" input="SourceAlpha"/>
      <feGaussianBlur stdDeviation="0.5" result="blur"/>
      <feFlood flood-opacity="0.161"/>
      <feComposite operator="in" in2="blur"/>
      <feComposite in="SourceGraphic"/>
    </filter>
  </defs>
  <g id="Ilustracion_Textarea" data-name="Ilustracion Textarea" transform="translate(-1022.5 -442.5)">
    <g transform="matrix(1, 0, 0, 1, 1022.5, 442.5)" filter="url(#Rect치ngulo_6434)">
      <g id="Rect치ngulo_6434-2" data-name="Rect치ngulo 6434" transform="translate(1.5 0.5)" fill="#fff" stroke="rgba(0,0,0,0.12)" stroke-width="1">
        <rect width="112" height="80" rx="2" stroke="none"/>
        <rect x="0.5" y="0.5" width="111" height="79" rx="1.5" fill="none"/>
      </g>
    </g>
    <path id="Trazado_7111" data-name="Trazado 7111" d="M18835.141,195h20" transform="translate(-17798.645 264)" fill="none" stroke="rgba(0,0,0,0.6)" stroke-linecap="round" stroke-width="1.51"/>
    <g id="Grupo_3908" data-name="Grupo 3908" transform="translate(4.002 252.5)">
      <path id="Trazado_7084" data-name="Trazado 7084" d="M18835.141,195h80" transform="translate(-17803.143 23.5)" fill="none" stroke="rgba(0,0,0,0.74)" stroke-linecap="round" stroke-width="1.51"/>
    </g>
    <g id="Grupo_3909" data-name="Grupo 3909" transform="translate(4 263)">
      <path id="Trazado_7084-2" data-name="Trazado 7084" d="M18835.141,195h74" transform="translate(-17803.141 23.5)" fill="none" stroke="rgba(0,0,0,0.74)" stroke-linecap="round" stroke-width="1.51"/>
    </g>
    <g id="Grupo_3910" data-name="Grupo 3910" transform="translate(-4 273.5)">
      <path id="Trazado_7084-3" data-name="Trazado 7084" d="M18835.141,195h65" transform="translate(-17795.141 23.5)" fill="none" stroke="rgba(0,0,0,0.74)" stroke-linecap="round" stroke-width="1.51"/>
    </g>
    <g id="Grupo_3943" data-name="Grupo 3943" transform="translate(-4 283.5)">
      <path id="Trazado_7084-4" data-name="Trazado 7084" d="M18835.143,195h40" transform="translate(-17795.143 23.5)" fill="none" stroke="rgba(0,0,0,0.74)" stroke-linecap="round" stroke-width="1.51"/>
    </g>
    <path id="Trazado_7186" data-name="Trazado 7186" d="M7.456,9.855l.714.715,2.4-2.4-.715-.715ZM4.7,9.548l.715.715,4.85-4.85L9.548,4.7ZM2.134,9.285,2.849,10,10,2.849l-.715-.715Z" transform="translate(1109.648 499.866)" fill="rgba(0,0,0,0.6)"/>
  </g>
</svg>
