<svg xmlns="http://www.w3.org/2000/svg" xmlns:xlink="http://www.w3.org/1999/xlink" width="91" height="107" viewBox="0 0 91 107">
  <defs>
    <filter id="Trazado_121212" x="0" y="0" width="91" height="107" filterUnits="userSpaceOnUse">
      <feOffset dy="1" input="SourceAlpha"/>
      <feGaussianBlur stdDeviation="0.5" result="blur"/>
      <feFlood flood-opacity="0.161"/>
      <feComposite operator="in" in2="blur"/>
      <feComposite in="SourceGraphic"/>
    </filter>
    <filter id="Trazado_w_16_" x="0" y="0" width="91" height="107" filterUnits="userSpaceOnUse">
      <feOffset dy="1" input="SourceAlpha"/>
      <feGaussianBlur stdDeviation="0.5" result="blur-2"/>
      <feFlood flood-opacity="0.161"/>
      <feComposite operator="in" in2="blur-2"/>
      <feComposite in="SourceGraphic"/>
    </filter>
    <filter id="Trazado_BC_6_" x="0" y="0" width="91" height="107" filterUnits="userSpaceOnUse">
      <feOffset dy="1" input="SourceAlpha"/>
      <feGaussianBlur stdDeviation="0.5" result="blur-3"/>
      <feFlood flood-opacity="0.161"/>
      <feComposite operator="in" in2="blur-3"/>
      <feComposite in="SourceGraphic"/>
    </filter>
    <clipPath id="clip-path">
      <rect id="Rectángulo_6412" data-name="Rectángulo 6412" width="40" height="40" fill="rgba(255,255,255,0.74)"/>
    </clipPath>
  </defs>
  <g id="Ilustracion_Hour" data-name="Ilustracion Hour" transform="translate(-412.5 -438.5)">
    <g id="bg">
      <g transform="matrix(1, 0, 0, 1, 412.5, 438.5)" filter="url(#Trazado_121212)">
        <g id="Trazado_121212-2" data-name="Trazado #121212" transform="translate(89.5 0.5) rotate(90)" fill="#121212">
          <path d="M2,0H102a2,2,0,0,1,2,2V86a2,2,0,0,1-2,2H2a2,2,0,0,1-2-2V2A2,2,0,0,1,2,0Z" stroke="none"/>
          <path d="M 2 1 C 1.448600769042969 1 1 1.448600769042969 1 2 L 1 86 C 1 86.55139923095703 1.448600769042969 87 2 87 L 102 87 C 102.551399230957 87 103 86.55139923095703 103 86 L 103 2 C 103 1.448600769042969 102.551399230957 1 102 1 L 2 1 M 2 0 L 102 0 C 103.1045684814453 0 104 0.8954315185546875 104 2 L 104 86 C 104 87.10456848144531 103.1045684814453 88 102 88 L 2 88 C 0.8954315185546875 88 0 87.10456848144531 0 86 L 0 2 C 0 0.8954315185546875 0.8954315185546875 0 2 0 Z" stroke="none" fill="rgba(255,255,255,0.12)"/>
        </g>
      </g>
      <g transform="matrix(1, 0, 0, 1, 412.5, 438.5)" filter="url(#Trazado_w_16_)">
        <g id="Trazado_w_16_2" data-name="Trazado  w 16%" transform="translate(89.5 0.5) rotate(90)" fill="rgba(255,255,255,0.16)">
          <path d="M2,0H102a2,2,0,0,1,2,2V86a2,2,0,0,1-2,2H2a2,2,0,0,1-2-2V2A2,2,0,0,1,2,0Z" stroke="none"/>
          <path d="M 2 1 C 1.448600769042969 1 1 1.448600769042969 1 2 L 1 86 C 1 86.55139923095703 1.448600769042969 87 2 87 L 102 87 C 102.551399230957 87 103 86.55139923095703 103 86 L 103 2 C 103 1.448600769042969 102.551399230957 1 102 1 L 2 1 M 2 0 L 102 0 C 103.1045684814453 0 104 0.8954315185546875 104 2 L 104 86 C 104 87.10456848144531 103.1045684814453 88 102 88 L 2 88 C 0.8954315185546875 88 0 87.10456848144531 0 86 L 0 2 C 0 0.8954315185546875 0.8954315185546875 0 2 0 Z" stroke="none" fill="rgba(255,255,255,0.12)"/>
        </g>
      </g>
      <g transform="matrix(1, 0, 0, 1, 412.5, 438.5)" filter="url(#Trazado_BC_6_)">
        <g id="Trazado_BC_6_2" data-name="Trazado BC 6%" transform="translate(89.5 0.5) rotate(90)" fill="rgba(20,100,165,0.06)">
          <path d="M2,0H102a2,2,0,0,1,2,2V86a2,2,0,0,1-2,2H2a2,2,0,0,1-2-2V2A2,2,0,0,1,2,0Z" stroke="none"/>
          <path d="M 2 1 C 1.448600769042969 1 1 1.448600769042969 1 2 L 1 86 C 1 86.55139923095703 1.448600769042969 87 2 87 L 102 87 C 102.551399230957 87 103 86.55139923095703 103 86 L 103 2 C 103 1.448600769042969 102.551399230957 1 102 1 L 2 1 M 2 0 L 102 0 C 103.1045684814453 0 104 0.8954315185546875 104 2 L 104 86 C 104 87.10456848144531 103.1045684814453 88 102 88 L 2 88 C 0.8954315185546875 88 0 87.10456848144531 0 86 L 0 2 C 0 0.8954315185546875 0.8954315185546875 0 2 0 Z" stroke="none" fill="rgba(255,255,255,0.12)"/>
        </g>
      </g>
    </g>
    <path id="Trazado_7102" data-name="Trazado 7102" d="M18835.143,195h86.449" transform="translate(-18420.092 267)" fill="none" stroke="rgba(255,255,255,0.12)" stroke-width="1.51"/>
    <text id="_16:00" data-name="16:00" transform="translate(443 456)" fill="rgba(255,255,255,0.74)" font-size="12" font-family="Poppins-Medium, Poppins" font-weight="500"><tspan x="0" y="0">16:00</tspan></text>
    <g id="Botones" transform="translate(1 -3)">
      <g id="b_accionPrimaria" transform="translate(-2)">
        <g id="Rectángulo_6430" data-name="Rectángulo 6430" transform="translate(432 527)" fill="rgba(0,0,0,0.12)" stroke="rgba(255,255,255,0.6)" stroke-width="1">
          <rect width="24" height="8" rx="1" stroke="none"/>
          <rect x="0.5" y="0.5" width="23" height="7" rx="0.5" fill="none"/>
        </g>
        <path id="Trazado_7103" data-name="Trazado 7103" d="M18835.145,195h8" transform="translate(-18395.145 336)" fill="none" stroke="rgba(255,255,255,0.74)" stroke-linecap="round" stroke-width="1.51"/>
      </g>
      <g id="b_accionSecundaria">
        <g id="Rectángulo_6431" data-name="Rectángulo 6431" transform="translate(460 527)" fill="rgba(0,0,0,0.12)" stroke="rgba(255,255,255,0.6)" stroke-width="0.75">
          <rect width="24" height="8" rx="1" stroke="none"/>
          <rect x="0.375" y="0.375" width="23.25" height="7.25" rx="0.625" fill="none"/>
        </g>
        <path id="Trazado_7104" data-name="Trazado 7104" d="M18835.145,195h8" transform="translate(-18367.145 336)" fill="none" stroke="rgba(255,255,255,0.6)" stroke-linecap="round" stroke-width="1.51"/>
      </g>
    </g>
    <g id="Grupo_3904" data-name="Grupo 3904" transform="translate(438 472)">
      <g id="Grupo_3888" data-name="Grupo 3888" clip-path="url(#clip-path)">
        <path id="Trazado_7057" data-name="Trazado 7057" d="M20.323,3.732a16.607,16.607,0,1,0,.032,0h-.032m.016,29.893A13.286,13.286,0,1,1,33.624,20.338v0A13.281,13.281,0,0,1,20.346,33.625Z" transform="translate(-0.339 -0.339)" fill="rgba(255,255,255,0.74)"/>
        <path id="Trazado_7058" data-name="Trazado 7058" d="M22.592,12.692H20.047V22.87l8.906,5.345,1.273-2.084L22.592,21.6Z" transform="translate(-1.822 -1.154)" fill="rgba(255,255,255,0.74)"/>
      </g>
    </g>
  </g>
</svg>
