<svg xmlns="http://www.w3.org/2000/svg" xmlns:xlink="http://www.w3.org/1999/xlink" width="133" height="91" viewBox="0 0 133 91">
  <defs>
    <filter id="Rectángulo_121212" x="0" y="0" width="133" height="91" filterUnits="userSpaceOnUse">
      <feOffset dy="1" input="SourceAlpha"/>
      <feGaussianBlur stdDeviation="0.5" result="blur"/>
      <feFlood flood-opacity="0.161"/>
      <feComposite operator="in" in2="blur"/>
      <feComposite in="SourceGraphic"/>
    </filter>
    <filter id="Rectángulo_W16_" x="0" y="0" width="133" height="91" filterUnits="userSpaceOnUse">
      <feOffset dy="1" input="SourceAlpha"/>
      <feGaussianBlur stdDeviation="0.5" result="blur-2"/>
      <feFlood flood-opacity="0.161"/>
      <feComposite operator="in" in2="blur-2"/>
      <feComposite in="SourceGraphic"/>
    </filter>
    <filter id="Rectángulo_BC6_" x="0" y="0" width="133" height="91" filterUnits="userSpaceOnUse">
      <feOffset dy="1" input="SourceAlpha"/>
      <feGaussianBlur stdDeviation="0.5" result="blur-3"/>
      <feFlood flood-opacity="0.161"/>
      <feComposite operator="in" in2="blur-3"/>
      <feComposite in="SourceGraphic"/>
    </filter>
  </defs>
  <g id="Ilustraion_image" data-name="Ilustraion image" transform="translate(-5556.5 -108.5)">
    <g id="BG" transform="translate(5165 -600)">
      <g transform="matrix(1, 0, 0, 1, 391.5, 708.5)" filter="url(#Rectángulo_121212)">
        <g id="Rectángulo_121212-2" data-name="Rectángulo #121212" transform="translate(1.5 0.5)" fill="#121212" stroke="rgba(255,255,255,0.12)" stroke-width="1">
          <rect width="130" height="88" rx="2" stroke="none"/>
          <rect x="0.5" y="0.5" width="129" height="87" rx="1.5" fill="none"/>
        </g>
      </g>
      <g transform="matrix(1, 0, 0, 1, 391.5, 708.5)" filter="url(#Rectángulo_W16_)">
        <g id="Rectángulo_W16_2" data-name="Rectángulo W16%" transform="translate(1.5 0.5)" fill="rgba(255,255,255,0.16)" stroke="rgba(255,255,255,0.12)" stroke-width="1">
          <rect width="130" height="88" rx="2" stroke="none"/>
          <rect x="0.5" y="0.5" width="129" height="87" rx="1.5" fill="none"/>
        </g>
      </g>
      <g transform="matrix(1, 0, 0, 1, 391.5, 708.5)" filter="url(#Rectángulo_BC6_)">
        <g id="Rectángulo_BC6_2" data-name="Rectángulo BC6%" transform="translate(1.5 0.5)" fill="rgba(20,100,165,0.06)" stroke="rgba(255,255,255,0.12)" stroke-width="1">
          <rect width="130" height="88" rx="2" stroke="none"/>
          <rect x="0.5" y="0.5" width="129" height="87" rx="1.5" fill="none"/>
        </g>
      </g>
    </g>
    <g id="Rectángulo_6441" data-name="Rectángulo 6441" transform="translate(5558 109)" fill="none" stroke="rgba(0,0,0,0.12)" stroke-width="1">
      <rect width="130" height="88" rx="2" stroke="none"/>
      <rect x="0.5" y="0.5" width="129" height="87" rx="1.5" fill="none"/>
    </g>
    <g id="ilustracion" transform="translate(0.875)">
      <path id="Trazado_7226" data-name="Trazado 7226" d="M5558.6,195.391l.431-.378,43.631-38.346,33.742,38.724" transform="translate(1.029 -0.484)" fill="none" stroke="rgba(255,255,255,0.74)" stroke-linecap="round" stroke-width="2"/>
      <path id="Trazado_7227" data-name="Trazado 7227" d="M5623.833,175.984l26.5-23.318,35.9,42.818" transform="translate(-0.875 -0.484)" fill="none" stroke="rgba(255,255,255,0.74)" stroke-linecap="round" stroke-width="2"/>
      <g id="Trazado_7261" data-name="Trazado 7261" transform="translate(5614.125 134)" fill="none">
        <path d="M8.5,0A8.5,8.5,0,1,1,0,8.5,8.5,8.5,0,0,1,8.5,0Z" stroke="none"/>
        <path d="M 8.5 2 C 4.915889739990234 2 2 4.915889739990234 2 8.5 C 2 12.08411026000977 4.915889739990234 15 8.5 15 C 12.08411026000977 15 15 12.08411026000977 15 8.5 C 15 4.915889739990234 12.08411026000977 2 8.5 2 M 8.5 0 C 13.19441986083984 0 17 3.805580139160156 17 8.5 C 17 13.19441986083984 13.19441986083984 17 8.5 17 C 3.805580139160156 17 0 13.19441986083984 0 8.5 C 0 3.805580139160156 3.805580139160156 0 8.5 0 Z" stroke="none" fill="rgba(255,255,255,0.74)"/>
      </g>
    </g>
  </g>
</svg>
