<svg xmlns="http://www.w3.org/2000/svg" xmlns:xlink="http://www.w3.org/1999/xlink" width="115" height="99" viewBox="0 0 115 99">
  <defs>
    <filter id="Rectángulo_6434" x="0" y="0" width="115" height="99" filterUnits="userSpaceOnUse">
      <feOffset dy="1" input="SourceAlpha"/>
      <feGaussianBlur stdDeviation="0.5" result="blur"/>
      <feFlood flood-opacity="0.161"/>
      <feComposite operator="in" in2="blur"/>
      <feComposite in="SourceGraphic"/>
    </filter>
    <filter id="Rectángulo_6489" x="0" y="0" width="115" height="99" filterUnits="userSpaceOnUse">
      <feOffset dy="1" input="SourceAlpha"/>
      <feGaussianBlur stdDeviation="0.5" result="blur-2"/>
      <feFlood flood-opacity="0.161"/>
      <feComposite operator="in" in2="blur-2"/>
      <feComposite in="SourceGraphic"/>
    </filter>
    <filter id="Rectángulo_6490" x="0" y="0" width="115" height="99" filterUnits="userSpaceOnUse">
      <feOffset dy="1" input="SourceAlpha"/>
      <feGaussianBlur stdDeviation="0.5" result="blur-3"/>
      <feFlood flood-opacity="0.161"/>
      <feComposite operator="in" in2="blur-3"/>
      <feComposite in="SourceGraphic"/>
    </filter>
  </defs>
  <g id="Ilustracion_List_Picker" data-name="Ilustracion List Picker" transform="translate(-1022.5 -442.5)">
    <g id="bg">
      <g transform="matrix(1, 0, 0, 1, 1022.5, 442.5)" filter="url(#Rectángulo_6434)">
        <g id="Rectángulo_6434-2" data-name="Rectángulo 6434" transform="translate(1.5 0.5)" fill="#121212" stroke="rgba(255,255,255,0.12)" stroke-width="1">
          <rect width="112" height="96" rx="2" stroke="none"/>
          <rect x="0.5" y="0.5" width="111" height="95" rx="1.5" fill="none"/>
        </g>
      </g>
      <g transform="matrix(1, 0, 0, 1, 1022.5, 442.5)" filter="url(#Rectángulo_6489)">
        <g id="Rectángulo_6489-2" data-name="Rectángulo 6489" transform="translate(1.5 0.5)" fill="rgba(255,255,255,0.16)" stroke="rgba(255,255,255,0.12)" stroke-width="1">
          <rect width="112" height="96" rx="2" stroke="none"/>
          <rect x="0.5" y="0.5" width="111" height="95" rx="1.5" fill="none"/>
        </g>
      </g>
      <g transform="matrix(1, 0, 0, 1, 1022.5, 442.5)" filter="url(#Rectángulo_6490)">
        <g id="Rectángulo_6490-2" data-name="Rectángulo 6490" transform="translate(1.5 0.5)" fill="rgba(20,100,165,0.06)" stroke="rgba(255,255,255,0.12)" stroke-width="1">
          <rect width="112" height="96" rx="2" stroke="none"/>
          <rect x="0.5" y="0.5" width="111" height="95" rx="1.5" fill="none"/>
        </g>
      </g>
    </g>
    <path id="Trazado_7110" data-name="Trazado 7110" d="M18835.143,195h96" transform="translate(-17803.143 275)" fill="none" stroke="rgba(255,255,255,0.12)" stroke-linecap="round" stroke-width="1.51"/>
    <path id="Trazado_7113" data-name="Trazado 7113" d="M18835.143,195h32" transform="translate(1323 -18354.143) rotate(90)" fill="none" stroke="rgba(255,255,255,0.16)" stroke-linecap="round" stroke-width="1.51"/>
    <path id="Trazado_7111" data-name="Trazado 7111" d="M18835.145,195h51.334" transform="translate(-17783.145 266)" fill="none" stroke="rgba(255,255,255,0.74)" stroke-linecap="round" stroke-width="1.51"/>
    <g id="Grupo_3908" data-name="Grupo 3908" transform="translate(8 263.5)">
      <path id="Trazado_7084" data-name="Trazado 7084" d="M18835.143,195h72" transform="translate(-17803.145 23.5)" fill="none" stroke="rgba(255,255,255,0.74)" stroke-linecap="round" stroke-width="1.51"/>
    </g>
    <g id="Grupo_3909" data-name="Grupo 3909" transform="translate(8 275)">
      <path id="Trazado_7084-2" data-name="Trazado 7084" d="M18835.145,195h72" transform="translate(-17803.145 23.5)" fill="none" stroke="rgba(255,255,255,0.74)" stroke-linecap="round" stroke-width="1.51"/>
    </g>
    <g id="Grupo_3910" data-name="Grupo 3910" transform="translate(0 285.5)">
      <path id="Trazado_7084-3" data-name="Trazado 7084" d="M18835.145,195h72" transform="translate(-17795.145 23.5)" fill="none" stroke="rgba(255,255,255,0.74)" stroke-linecap="round" stroke-width="1.51"/>
    </g>
    <g id="Botones">
      <g id="Rectángulo_6435" data-name="Rectángulo 6435" transform="translate(1069 519)" fill="rgba(0,0,0,0.12)" stroke="rgba(255,255,255,0.74)" stroke-width="1">
        <rect width="24" height="8" rx="1" stroke="none"/>
        <rect x="0.5" y="0.5" width="23" height="7" rx="0.5" fill="none"/>
      </g>
      <path id="Trazado_7112" data-name="Trazado 7112" d="M18835.145,195h8" transform="translate(-17758.145 328)" fill="none" stroke="rgba(255,255,255,0.74)" stroke-linecap="round" stroke-width="1.51"/>
    </g>
    <g id="search-24px" transform="translate(1032 449)">
      <path id="Trazado_7066" data-name="Trazado 7066" d="M0,0H18V18H0Z" fill="none"/>
      <path id="Trazado_7067" data-name="Trazado 7067" d="M12.027,10.944h-.571l-.2-.195a4.7,4.7,0,1,0-.506.506l.195.2v.571l3.611,3.6,1.076-1.076Zm-4.333,0a3.25,3.25,0,1,1,3.25-3.25A3.245,3.245,0,0,1,7.694,10.944Z" transform="translate(-0.526 -0.526)" fill="rgba(255,255,255,0.74)"/>
    </g>
  </g>
</svg>
