<svg xmlns="http://www.w3.org/2000/svg" xmlns:xlink="http://www.w3.org/1999/xlink" width="115" height="99" viewBox="0 0 115 99">
  <defs>
    <filter id="Rectángulo_121212" x="0" y="0" width="115" height="99" filterUnits="userSpaceOnUse">
      <feOffset dy="1" input="SourceAlpha"/>
      <feGaussianBlur stdDeviation="0.5" result="blur"/>
      <feFlood flood-opacity="0.161"/>
      <feComposite operator="in" in2="blur"/>
      <feComposite in="SourceGraphic"/>
    </filter>
    <filter id="Rectángulo_W16_" x="0" y="0" width="115" height="99" filterUnits="userSpaceOnUse">
      <feOffset dy="1" input="SourceAlpha"/>
      <feGaussianBlur stdDeviation="0.5" result="blur-2"/>
      <feFlood flood-opacity="0.161"/>
      <feComposite operator="in" in2="blur-2"/>
      <feComposite in="SourceGraphic"/>
    </filter>
    <filter id="Rectángulo_BC6_" x="0" y="0" width="115" height="99" filterUnits="userSpaceOnUse">
      <feOffset dy="1" input="SourceAlpha"/>
      <feGaussianBlur stdDeviation="0.5" result="blur-3"/>
      <feFlood flood-opacity="0.161"/>
      <feComposite operator="in" in2="blur-3"/>
      <feComposite in="SourceGraphic"/>
    </filter>
  </defs>
  <g id="Ilustración_list_Mod._Dark" data-name="Ilustración list Mod. Dark" transform="translate(-4039.5 -89.5)">
    <g id="Ilustracion_List" data-name="Ilustracion List" transform="translate(3017 -93)">
      <g id="BG">
        <g transform="matrix(1, 0, 0, 1, 1022.5, 182.5)" filter="url(#Rectángulo_121212)">
          <g id="Rectángulo_121212-2" data-name="Rectángulo #121212" transform="translate(1.5 0.5)" fill="#121212" stroke="rgba(255,255,255,0.12)" stroke-width="1">
            <rect width="112" height="96" rx="2" stroke="none"/>
            <rect x="0.5" y="0.5" width="111" height="95" rx="1.5" fill="none"/>
          </g>
        </g>
        <g transform="matrix(1, 0, 0, 1, 1022.5, 182.5)" filter="url(#Rectángulo_W16_)">
          <g id="Rectángulo_W16_2" data-name="Rectángulo W16%" transform="translate(1.5 0.5)" fill="rgba(255,255,255,0.16)" stroke="rgba(255,255,255,0.12)" stroke-width="1">
            <rect width="112" height="96" rx="2" stroke="none"/>
            <rect x="0.5" y="0.5" width="111" height="95" rx="1.5" fill="none"/>
          </g>
        </g>
        <g transform="matrix(1, 0, 0, 1, 1022.5, 182.5)" filter="url(#Rectángulo_BC6_)">
          <g id="Rectángulo_BC6_2" data-name="Rectángulo BC6%" transform="translate(1.5 0.5)" fill="rgba(20,100,165,0.06)" stroke="rgba(255,255,255,0.12)" stroke-width="1">
            <rect width="112" height="96" rx="2" stroke="none"/>
            <rect x="0.5" y="0.5" width="111" height="95" rx="1.5" fill="none"/>
          </g>
        </g>
      </g>
    </g>
    <g id="Grupo_3986" data-name="Grupo 3986" transform="translate(131 4)">
      <g id="item1" transform="translate(2907.091 -96)">
        <path id="Trazado_7092" data-name="Trazado 7092" d="M18835.145,195h64" transform="translate(-17805.145 9)" fill="none" stroke="rgba(255,255,255,0.74)" stroke-linecap="round" stroke-width="1.51"/>
        <path id="Trazado_7091" data-name="Trazado 7091" d="M18835.145,195h16" transform="translate(-17805.145 3)" fill="none" stroke="rgba(255,255,255,0.6)" stroke-linecap="round" stroke-width="1.51"/>
        <path id="Trazado_7262" data-name="Trazado 7262" d="M5,0A5,5,0,1,1,0,5,5,5,0,0,1,5,0Z" transform="translate(1014.909 195)" fill="rgba(255,255,255,0.6)"/>
      </g>
    </g>
    <g id="Grupo_3987" data-name="Grupo 3987" transform="translate(131 25)">
      <g id="item1-2" data-name="item1" transform="translate(2907.091 -97)">
        <path id="Trazado_7092-2" data-name="Trazado 7092" d="M18835.145,195h64" transform="translate(-17805.145 9)" fill="none" stroke="rgba(255,255,255,0.74)" stroke-linecap="round" stroke-width="1.51"/>
        <path id="Trazado_7091-2" data-name="Trazado 7091" d="M18835.145,195h16" transform="translate(-17805.145 3)" fill="none" stroke="rgba(255,255,255,0.6)" stroke-linecap="round" stroke-width="1.51"/>
        <path id="Trazado_7262-2" data-name="Trazado 7262" d="M5,0A5,5,0,1,1,0,5,5,5,0,0,1,5,0Z" transform="translate(1014.909 195)" fill="rgba(255,255,255,0.6)"/>
      </g>
    </g>
    <g id="Grupo_3988" data-name="Grupo 3988" transform="translate(131 44)">
      <g id="item1-3" data-name="item1" transform="translate(2907.091 -96)">
        <path id="Trazado_7092-3" data-name="Trazado 7092" d="M18835.145,195h64" transform="translate(-17805.145 9)" fill="none" stroke="rgba(255,255,255,0.74)" stroke-linecap="round" stroke-width="1.51"/>
        <path id="Trazado_7091-3" data-name="Trazado 7091" d="M18835.145,195h16" transform="translate(-17805.145 3)" fill="none" stroke="rgba(255,255,255,0.6)" stroke-linecap="round" stroke-width="1.51"/>
        <path id="Trazado_7262-3" data-name="Trazado 7262" d="M5,0A5,5,0,1,1,0,5,5,5,0,0,1,5,0Z" transform="translate(1014.909 195)" fill="rgba(255,255,255,0.6)"/>
      </g>
    </g>
    <g id="Grupo_3989" data-name="Grupo 3989" transform="translate(131 64)">
      <g id="item1-4" data-name="item1" transform="translate(2907.091 -96)">
        <path id="Trazado_7092-4" data-name="Trazado 7092" d="M18835.145,195h64" transform="translate(-17805.145 9)" fill="none" stroke="rgba(255,255,255,0.74)" stroke-linecap="round" stroke-width="1.51"/>
        <path id="Trazado_7091-4" data-name="Trazado 7091" d="M18835.145,195h16" transform="translate(-17805.145 3)" fill="none" stroke="rgba(255,255,255,0.6)" stroke-linecap="round" stroke-width="1.51"/>
        <path id="Trazado_7262-4" data-name="Trazado 7262" d="M5,0A5,5,0,1,1,0,5,5,5,0,0,1,5,0Z" transform="translate(1014.909 195)" fill="rgba(255,255,255,0.6)"/>
      </g>
    </g>
  </g>
</svg>
