<svg xmlns="http://www.w3.org/2000/svg" xmlns:xlink="http://www.w3.org/1999/xlink" width="163" height="37.5" viewBox="0 0 163 37.5">
  <defs>
    <filter id="Rectángulo_121212" x="0" y="0" width="163" height="37" filterUnits="userSpaceOnUse">
      <feOffset dy="1" input="SourceAlpha"/>
      <feGaussianBlur stdDeviation="0.5" result="blur"/>
      <feFlood flood-opacity="0.161"/>
      <feComposite operator="in" in2="blur"/>
      <feComposite in="SourceGraphic"/>
    </filter>
    <filter id="Rectángulo_W16_" x="0" y="0" width="163" height="37" filterUnits="userSpaceOnUse">
      <feOffset dy="1" input="SourceAlpha"/>
      <feGaussianBlur stdDeviation="0.5" result="blur-2"/>
      <feFlood flood-opacity="0.161"/>
      <feComposite operator="in" in2="blur-2"/>
      <feComposite in="SourceGraphic"/>
    </filter>
    <filter id="Rectángulo_BC6_" x="0" y="0" width="163" height="37" filterUnits="userSpaceOnUse">
      <feOffset dy="1" input="SourceAlpha"/>
      <feGaussianBlur stdDeviation="0.5" result="blur-3"/>
      <feFlood flood-opacity="0.161"/>
      <feComposite operator="in" in2="blur-3"/>
      <feComposite in="SourceGraphic"/>
    </filter>
    <clipPath id="clip-path">
      <rect id="Rectángulo_6467" data-name="Rectángulo 6467" width="14" height="14" fill="rgba(255,255,255,0.6)"/>
    </clipPath>
  </defs>
  <g id="Ilustracion_Password" data-name="Ilustracion Password" transform="translate(-681.5 -451.5)">
    <g id="BG">
      <g transform="matrix(1, 0, 0, 1, 681.5, 451.5)" filter="url(#Rectángulo_121212)">
        <g id="Rectángulo_121212-2" data-name="Rectángulo #121212" transform="translate(1.5 0.5)" fill="#121212" stroke="rgba(255,255,255,0.12)" stroke-width="1">
          <rect width="160" height="34" rx="2" stroke="none"/>
          <rect x="0.5" y="0.5" width="159" height="33" rx="1.5" fill="none"/>
        </g>
      </g>
      <g transform="matrix(1, 0, 0, 1, 681.5, 451.5)" filter="url(#Rectángulo_W16_)">
        <g id="Rectángulo_W16_2" data-name="Rectángulo W16%" transform="translate(1.5 0.5)" fill="rgba(255,255,255,0.16)" stroke="rgba(255,255,255,0.12)" stroke-width="1">
          <rect width="160" height="34" rx="2" stroke="none"/>
          <rect x="0.5" y="0.5" width="159" height="33" rx="1.5" fill="none"/>
        </g>
      </g>
      <g transform="matrix(1, 0, 0, 1, 681.5, 451.5)" filter="url(#Rectángulo_BC6_)">
        <g id="Rectángulo_BC6_2" data-name="Rectángulo BC6%" transform="translate(1.5 0.5)" fill="rgba(20,100,165,0.06)" stroke="rgba(255,255,255,0.12)" stroke-width="1">
          <rect width="160" height="34" rx="2" stroke="none"/>
          <rect x="0.5" y="0.5" width="159" height="33" rx="1.5" fill="none"/>
        </g>
      </g>
    </g>
    <path id="Trazado_7106" data-name="Trazado 7106" d="M18835.145,195h16" transform="translate(-18144.145 265)" fill="none" stroke="rgba(255,255,255,0.6)" stroke-linecap="round" stroke-width="1.51"/>
    <text id="_" data-name="******" transform="translate(691 470)" fill="rgba(255,255,255,0.74)" font-size="13" font-family="Poppins-Medium, Poppins" font-weight="500"><tspan x="0" y="14">******</tspan></text>
    <text id="_2" data-name="*" transform="translate(711 466)" fill="rgba(255,255,255,0.74)" font-size="12" font-family="Poppins-Medium, Poppins" font-weight="500"><tspan x="0" y="0">*</tspan></text>
    <g id="Grupo_3935" data-name="Grupo 3935" transform="translate(823 468)">
      <g id="Grupo_3934" data-name="Grupo 3934" clip-path="url(#clip-path)">
        <path id="Trazado_7173" data-name="Trazado 7173" d="M7.379,5.834a3.5,3.5,0,1,0,0,2.333H9.916V10.5H12.25V8.167h1.166V5.834Zm-3.3,2.333A1.166,1.166,0,1,1,5.25,7,1.167,1.167,0,0,1,4.083,8.167" fill="rgba(255,255,255,0.6)"/>
      </g>
    </g>
  </g>
</svg>
