<svg xmlns="http://www.w3.org/2000/svg" xmlns:xlink="http://www.w3.org/1999/xlink" width="211" height="86" viewBox="0 0 211 86">
  <defs>
    <filter id="Rectángulo_121212" x="104" y="0" width="107" height="37" filterUnits="userSpaceOnUse">
      <feOffset dy="1" input="SourceAlpha"/>
      <feGaussianBlur stdDeviation="0.5" result="blur"/>
      <feFlood flood-opacity="0.161"/>
      <feComposite operator="in" in2="blur"/>
      <feComposite in="SourceGraphic"/>
    </filter>
    <filter id="Rectángulo_W16_" x="104" y="0" width="107" height="37" filterUnits="userSpaceOnUse">
      <feOffset dy="1" input="SourceAlpha"/>
      <feGaussianBlur stdDeviation="0.5" result="blur-2"/>
      <feFlood flood-opacity="0.161"/>
      <feComposite operator="in" in2="blur-2"/>
      <feComposite in="SourceGraphic"/>
    </filter>
    <filter id="Rectángulo_BC6_" x="104" y="0" width="107" height="37" filterUnits="userSpaceOnUse">
      <feOffset dy="1" input="SourceAlpha"/>
      <feGaussianBlur stdDeviation="0.5" result="blur-3"/>
      <feFlood flood-opacity="0.161"/>
      <feComposite operator="in" in2="blur-3"/>
      <feComposite in="SourceGraphic"/>
    </filter>
    <filter id="Rectángulo_121212-2" x="0" y="0" width="99" height="86" filterUnits="userSpaceOnUse">
      <feOffset dy="1" input="SourceAlpha"/>
      <feGaussianBlur stdDeviation="0.5" result="blur-4"/>
      <feFlood flood-opacity="0.161"/>
      <feComposite operator="in" in2="blur-4"/>
      <feComposite in="SourceGraphic"/>
    </filter>
    <filter id="Rectángulo_W16_2" x="0" y="0" width="99" height="86" filterUnits="userSpaceOnUse">
      <feOffset dy="1" input="SourceAlpha"/>
      <feGaussianBlur stdDeviation="0.5" result="blur-5"/>
      <feFlood flood-opacity="0.161"/>
      <feComposite operator="in" in2="blur-5"/>
      <feComposite in="SourceGraphic"/>
    </filter>
    <filter id="Rectángulo_BC6_2" x="0" y="0" width="99" height="86" filterUnits="userSpaceOnUse">
      <feOffset dy="1" input="SourceAlpha"/>
      <feGaussianBlur stdDeviation="0.5" result="blur-6"/>
      <feFlood flood-opacity="0.161"/>
      <feComposite operator="in" in2="blur-6"/>
      <feComposite in="SourceGraphic"/>
    </filter>
  </defs>
  <g id="ilustracion_Phone" data-name="ilustracion Phone" transform="translate(-30.5 -23.5)">
    <g id="Ilustración_Tel." data-name="Ilustración Tel." transform="translate(-547 -428)">
      <g id="BG">
        <g transform="matrix(1, 0, 0, 1, 577.5, 451.5)" filter="url(#Rectángulo_121212)">
          <g id="Rectángulo_121212-3" data-name="Rectángulo #121212" transform="translate(105.5 0.5)" fill="#121212" stroke="rgba(255,255,255,0.12)" stroke-width="1">
            <rect width="104" height="34" rx="2" stroke="none"/>
            <rect x="0.5" y="0.5" width="103" height="33" rx="1.5" fill="none"/>
          </g>
        </g>
        <g transform="matrix(1, 0, 0, 1, 577.5, 451.5)" filter="url(#Rectángulo_W16_)">
          <g id="Rectángulo_W16_3" data-name="Rectángulo W16%" transform="translate(105.5 0.5)" fill="rgba(255,255,255,0.16)" stroke="rgba(255,255,255,0.12)" stroke-width="1">
            <rect width="104" height="34" rx="2" stroke="none"/>
            <rect x="0.5" y="0.5" width="103" height="33" rx="1.5" fill="none"/>
          </g>
        </g>
        <g transform="matrix(1, 0, 0, 1, 577.5, 451.5)" filter="url(#Rectángulo_BC6_)">
          <g id="Rectángulo_BC6_3" data-name="Rectángulo BC6%" transform="translate(105.5 0.5)" fill="rgba(20,100,165,0.06)" stroke="rgba(255,255,255,0.12)" stroke-width="1">
            <rect width="104" height="34" rx="2" stroke="none"/>
            <rect x="0.5" y="0.5" width="103" height="33" rx="1.5" fill="none"/>
          </g>
        </g>
      </g>
      <path id="Trazado_7106" data-name="Trazado 7106" d="M18835.145,195h16" transform="translate(-18146.145 265)" fill="none" stroke="rgba(255,255,255,0.6)" stroke-linecap="round" stroke-width="1.51"/>
      <text id="_" data-name="*" transform="translate(709 466)" fill="rgba(255,255,255,0.74)" font-size="12" font-family="Poppins-Medium, Poppins" font-weight="500"><tspan x="0" y="0">*</tspan></text>
      <g id="phone_black_24dp_1_" data-name="phone_black_24dp (1)" transform="translate(770.379 469)">
        <path id="Trazado_7176" data-name="Trazado 7176" d="M0,0H12.621V12.621H0Z" fill="none"/>
        <path id="Trazado_7177" data-name="Trazado 7177" d="M4.866,7.015a7.807,7.807,0,0,0,3.4,3.4L9.4,9.277a.512.512,0,0,1,.526-.124,5.879,5.879,0,0,0,1.84.294.517.517,0,0,1,.515.515v1.8a.517.517,0,0,1-.515.515A8.76,8.76,0,0,1,3,3.515.517.517,0,0,1,3.515,3h1.8a.517.517,0,0,1,.515.515,5.855,5.855,0,0,0,.294,1.84A.517.517,0,0,1,6,5.881Z" transform="translate(-1.328 -1.328)" fill="rgba(255,255,255,0.6)"/>
      </g>
      <text id="_986_11_20_34" data-name="986 11 20 34" transform="translate(689 478)" fill="rgba(255,255,255,0.74)" font-size="10" font-family="Poppins-Bold, Poppins" font-weight="700"><tspan x="0" y="0">986 11 20 34</tspan></text>
    </g>
    <g id="Ilustración_Combo" data-name="Ilustración Combo" transform="translate(-992 -159)">
      <g id="BG-2" data-name="BG">
        <g transform="matrix(1, 0, 0, 1, 1022.5, 182.5)" filter="url(#Rectángulo_121212-2)">
          <g id="Rectángulo_121212-4" data-name="Rectángulo #121212" transform="translate(1.5 0.5)" fill="#121212" stroke="rgba(255,255,255,0.12)" stroke-width="1">
            <rect width="96" height="83" rx="2" stroke="none"/>
            <rect x="0.5" y="0.5" width="95" height="82" rx="1.5" fill="none"/>
          </g>
        </g>
        <g transform="matrix(1, 0, 0, 1, 1022.5, 182.5)" filter="url(#Rectángulo_W16_2)">
          <g id="Rectángulo_W16_4" data-name="Rectángulo W16%" transform="translate(1.5 0.5)" fill="rgba(255,255,255,0.16)" stroke="rgba(255,255,255,0.12)" stroke-width="1">
            <rect width="96" height="83" rx="2" stroke="none"/>
            <rect x="0.5" y="0.5" width="95" height="82" rx="1.5" fill="none"/>
          </g>
        </g>
        <g transform="matrix(1, 0, 0, 1, 1022.5, 182.5)" filter="url(#Rectángulo_BC6_2)">
          <g id="Rectángulo_BC6_4" data-name="Rectángulo BC6%" transform="translate(1.5 0.5)" fill="rgba(20,100,165,0.06)" stroke="rgba(255,255,255,0.12)" stroke-width="1">
            <rect width="96" height="83" rx="2" stroke="none"/>
            <rect x="0.5" y="0.5" width="95" height="82" rx="1.5" fill="none"/>
          </g>
        </g>
      </g>
      <path id="Trazado_7093" data-name="Trazado 7093" d="M18835.143,195h82.666" transform="translate(-17804.254 14.694)" fill="none" stroke="rgba(255,255,255,0.12)" stroke-linecap="round" stroke-width="1.51"/>
      <path id="Trazado_7092" data-name="Trazado 7092" d="M18835.145,195h40" transform="translate(-17804.256 7.806)" fill="none" stroke="rgba(255,255,255,0.74)" stroke-linecap="round" stroke-width="1.51"/>
      <path id="Trazado_7091" data-name="Trazado 7091" d="M18835.145,195h13" transform="translate(-17805.145 0)" fill="none" stroke="rgba(255,255,255,0.6)" stroke-linecap="round" stroke-width="1.51"/>
      <g id="chevron_left_black_24dp_1_" data-name="chevron_left_black_24dp (1)" transform="translate(1115.278 191.611) rotate(90)">
        <path id="Trazado_7080" data-name="Trazado 7080" d="M0,0H15.5V15.5H0Z" fill="none"/>
        <path id="Trazado_7145" data-name="Trazado 7145" d="M0,3.684H7.484L5.463,1.663,3.8,0Z" transform="translate(9.712 3.71) rotate(90)" fill="rgba(255,255,255,0.6)"/>
      </g>
      <g id="Grupo_3900" data-name="Grupo 3900" transform="translate(1030.889 222.181)">
        <path id="Trazado_7084" data-name="Trazado 7084" d="M18835.145,195h55.111" transform="translate(-18835.145 -195)" fill="none" stroke="rgba(255,255,255,0.74)" stroke-linecap="round" stroke-width="1.51"/>
      </g>
      <g id="Grupo_3901" data-name="Grupo 3901" transform="translate(1030.889 229.5)">
        <path id="Trazado_7084-2" data-name="Trazado 7084" d="M18835.145,195h55.111" transform="translate(-18835.145 -188.542)" fill="none" stroke="rgba(255,255,255,0.74)" stroke-linecap="round" stroke-width="1.51"/>
        <rect id="Rectángulo_6424" data-name="Rectángulo 6424" width="85" height="12" transform="translate(-0.889 0.5)" fill="rgba(255,255,255,0.12)"/>
      </g>
      <g id="Grupo_3902" data-name="Grupo 3902" transform="translate(1030.889 249.736)">
        <path id="Trazado_7084-3" data-name="Trazado 7084" d="M18835.145,195h55.111" transform="translate(-18835.145 -195)" fill="none" stroke="rgba(255,255,255,0.74)" stroke-linecap="round" stroke-width="1.51"/>
      </g>
      <text id="_34" data-name="+34" transform="translate(1093 239)" fill="rgba(255,255,255,0.74)" font-size="10" font-family="Poppins-Bold, Poppins" font-weight="700"><tspan x="0" y="0">+34</tspan></text>
    </g>
  </g>
</svg>
