<svg xmlns="http://www.w3.org/2000/svg" xmlns:xlink="http://www.w3.org/1999/xlink" width="133" height="91" viewBox="0 0 133 91">
  <defs>
    <filter id="Rectángulo_121212" x="0" y="0" width="133" height="91" filterUnits="userSpaceOnUse">
      <feOffset dy="1" input="SourceAlpha"/>
      <feGaussianBlur stdDeviation="0.5" result="blur"/>
      <feFlood flood-opacity="0.161"/>
      <feComposite operator="in" in2="blur"/>
      <feComposite in="SourceGraphic"/>
    </filter>
    <filter id="Rectángulo_W16_" x="0" y="0" width="133" height="91" filterUnits="userSpaceOnUse">
      <feOffset dy="1" input="SourceAlpha"/>
      <feGaussianBlur stdDeviation="0.5" result="blur-2"/>
      <feFlood flood-opacity="0.161"/>
      <feComposite operator="in" in2="blur-2"/>
      <feComposite in="SourceGraphic"/>
    </filter>
    <filter id="Rectángulo_BC6_" x="0" y="0" width="133" height="91" filterUnits="userSpaceOnUse">
      <feOffset dy="1" input="SourceAlpha"/>
      <feGaussianBlur stdDeviation="0.5" result="blur-3"/>
      <feFlood flood-opacity="0.161"/>
      <feComposite operator="in" in2="blur-3"/>
      <feComposite in="SourceGraphic"/>
    </filter>
  </defs>
  <g id="Ilustracion_Slide_Toggle" data-name="Ilustracion Slide Toggle" transform="translate(-391.5 -708.5)">
    <g id="Bg">
      <g transform="matrix(1, 0, 0, 1, 391.5, 708.5)" filter="url(#Rectángulo_121212)">
        <g id="Rectángulo_121212-2" data-name="Rectángulo #121212" transform="translate(1.5 0.5)" fill="#121212" stroke="rgba(255,255,255,0.12)" stroke-width="1">
          <rect width="130" height="88" rx="2" stroke="none"/>
          <rect x="0.5" y="0.5" width="129" height="87" rx="1.5" fill="none"/>
        </g>
      </g>
      <g transform="matrix(1, 0, 0, 1, 391.5, 708.5)" filter="url(#Rectángulo_W16_)">
        <g id="Rectángulo_W16_2" data-name="Rectángulo W16%" transform="translate(1.5 0.5)" fill="rgba(255,255,255,0.16)" stroke="rgba(255,255,255,0.12)" stroke-width="1">
          <rect width="130" height="88" rx="2" stroke="none"/>
          <rect x="0.5" y="0.5" width="129" height="87" rx="1.5" fill="none"/>
        </g>
      </g>
      <g transform="matrix(1, 0, 0, 1, 391.5, 708.5)" filter="url(#Rectángulo_BC6_)">
        <g id="Rectángulo_BC6_2" data-name="Rectángulo BC6%" transform="translate(1.5 0.5)" fill="rgba(20,100,165,0.06)" stroke="rgba(255,255,255,0.12)" stroke-width="1">
          <rect width="130" height="88" rx="2" stroke="none"/>
          <rect x="0.5" y="0.5" width="129" height="87" rx="1.5" fill="none"/>
        </g>
      </g>
    </g>
    <g id="Grupo_3924" data-name="Grupo 3924" transform="translate(438 747)">
      <path id="Trazado_7084" data-name="Trazado 7084" d="M18835.145,195h64" transform="translate(-18835.145 -195)" fill="none" stroke="rgba(255,255,255,0.74)" stroke-linecap="round" stroke-width="1.51"/>
    </g>
    <g id="Grupo_3930" data-name="Grupo 3930" transform="translate(438 773)">
      <path id="Trazado_7084-2" data-name="Trazado 7084" d="M18835.145,195h64" transform="translate(-18835.145 -195)" fill="none" stroke="rgba(255,255,255,0.74)" stroke-linecap="round" stroke-width="1.51"/>
    </g>
    <g id="Grupo_3928" data-name="Grupo 3928" transform="translate(405 725)">
      <path id="Trazado_7084-3" data-name="Trazado 7084" d="M18835.145,195h40" transform="translate(-18835.145 -195)" fill="none" stroke="rgba(255,255,255,0.6)" stroke-linecap="round" stroke-width="1.51"/>
    </g>
    <g id="Grupo_3927" data-name="Grupo 3927" transform="translate(-2 10.889)">
      <rect id="Rectángulo_6442" data-name="Rectángulo 6442" width="15" height="7" rx="3.5" transform="translate(407 732.111)" fill="rgba(255,255,255,0.6)"/>
      <circle id="Elipse_1168" data-name="Elipse 1168" cx="5.5" cy="5.5" r="5.5" transform="translate(416 730.111)" fill="#cfcfcf"/>
    </g>
    <g id="Grupo_3931" data-name="Grupo 3931" transform="translate(832 1508.111) rotate(180)">
      <rect id="Rectángulo_6442-2" data-name="Rectángulo 6442" width="15" height="7" rx="3.5" transform="translate(407 732.111)" fill="rgba(255,255,255,0.6)"/>
      <path id="Trazado_7244" data-name="Trazado 7244" d="M5.5,0A5.5,5.5,0,1,1,0,5.5,5.5,5.5,0,0,1,5.5,0Z" transform="translate(416 730.111)" fill="#cfcfcf"/>
    </g>
  </g>
</svg>
