<svg xmlns="http://www.w3.org/2000/svg" xmlns:xlink="http://www.w3.org/1999/xlink" width="115" height="99" viewBox="0 0 115 99">
  <defs>
    <filter id="Rectángulo_121212" x="0" y="0" width="115" height="99" filterUnits="userSpaceOnUse">
      <feOffset dy="1" input="SourceAlpha"/>
      <feGaussianBlur stdDeviation="0.5" result="blur"/>
      <feFlood flood-opacity="0.161"/>
      <feComposite operator="in" in2="blur"/>
      <feComposite in="SourceGraphic"/>
    </filter>
    <filter id="Rectángulo_W16_" x="0" y="0" width="115" height="99" filterUnits="userSpaceOnUse">
      <feOffset dy="1" input="SourceAlpha"/>
      <feGaussianBlur stdDeviation="0.5" result="blur-2"/>
      <feFlood flood-opacity="0.161"/>
      <feComposite operator="in" in2="blur-2"/>
      <feComposite in="SourceGraphic"/>
    </filter>
    <filter id="Rectángulo_BC6_" x="0" y="0" width="115" height="99" filterUnits="userSpaceOnUse">
      <feOffset dy="1" input="SourceAlpha"/>
      <feGaussianBlur stdDeviation="0.5" result="blur-3"/>
      <feFlood flood-opacity="0.161"/>
      <feComposite operator="in" in2="blur-3"/>
      <feComposite in="SourceGraphic"/>
    </filter>
  </defs>
  <g id="Ilustración_tabla_Mod._Dark_REDONE" data-name="Ilustración tabla Mod. Dark REDONE" transform="translate(-4039.5 -89.5)">
    <g id="BG" transform="translate(3017 -93)">
      <g transform="matrix(1, 0, 0, 1, 1022.5, 182.5)" filter="url(#Rectángulo_121212)">
        <g id="Rectángulo_121212-2" data-name="Rectángulo #121212" transform="translate(1.5 0.5)" fill="#121212" stroke="rgba(255,255,255,0.12)" stroke-width="1">
          <rect width="112" height="96" rx="2" stroke="none"/>
          <rect x="0.5" y="0.5" width="111" height="95" rx="1.5" fill="none"/>
        </g>
      </g>
      <g transform="matrix(1, 0, 0, 1, 1022.5, 182.5)" filter="url(#Rectángulo_W16_)">
        <g id="Rectángulo_W16_2" data-name="Rectángulo W16%" transform="translate(1.5 0.5)" fill="rgba(255,255,255,0.16)" stroke="rgba(255,255,255,0.12)" stroke-width="1">
          <rect width="112" height="96" rx="2" stroke="none"/>
          <rect x="0.5" y="0.5" width="111" height="95" rx="1.5" fill="none"/>
        </g>
      </g>
      <g transform="matrix(1, 0, 0, 1, 1022.5, 182.5)" filter="url(#Rectángulo_BC6_)">
        <g id="Rectángulo_BC6_2" data-name="Rectángulo BC6%" transform="translate(1.5 0.5)" fill="rgba(20,100,165,0.06)" stroke="rgba(255,255,255,0.12)" stroke-width="1">
          <rect width="112" height="96" rx="2" stroke="none"/>
          <rect x="0.5" y="0.5" width="111" height="95" rx="1.5" fill="none"/>
        </g>
      </g>
    </g>
    <g id="Grupo_4009" data-name="Grupo 4009" transform="translate(3017 -353)">
      <path id="Trazado_7110" data-name="Trazado 7110" d="M18835.143,195h96" transform="translate(-17802.643 278)" fill="none" stroke="rgba(255,255,255,0.12)" stroke-linecap="round" stroke-width="1.51"/>
      <path id="Trazado_7204" data-name="Trazado 7204" d="M18835.143,195h4" transform="translate(1275 -18370.143) rotate(90)" fill="none" stroke="rgba(255,255,255,0.12)" stroke-linecap="round" stroke-width="1"/>
      <path id="Trazado_7206" data-name="Trazado 7206" d="M18835.143,195h4" transform="translate(1301 -18370.143) rotate(90)" fill="none" stroke="rgba(255,255,255,0.12)" stroke-linecap="round" stroke-width="1"/>
      <path id="Trazado_7205" data-name="Trazado 7205" d="M18835.143,195h4" transform="translate(1250 -18370.143) rotate(90)" fill="none" stroke="rgba(255,255,255,0.12)" stroke-linecap="round" stroke-width="1"/>
      <path id="Trazado_7168" data-name="Trazado 7168" d="M18835.145,195h16" transform="translate(-17800.645 272)" fill="none" stroke="rgba(255,255,255,0.74)" stroke-linecap="round" stroke-width="1.51"/>
      <path id="Trazado_7169" data-name="Trazado 7169" d="M18835.145,195h16" transform="translate(-17775.645 272)" fill="none" stroke="rgba(255,255,255,0.74)" stroke-linecap="round" stroke-width="1.51"/>
      <path id="Trazado_7171" data-name="Trazado 7171" d="M18835.145,195h16" transform="translate(-17750.645 272)" fill="none" stroke="rgba(255,255,255,0.74)" stroke-linecap="round" stroke-width="1.51"/>
      <path id="Trazado_7202" data-name="Trazado 7202" d="M18835.145,195h16" transform="translate(-17724.645 272)" fill="none" stroke="rgba(255,255,255,0.74)" stroke-linecap="round" stroke-width="1.51"/>
    </g>
    <g id="Grupo_4010" data-name="Grupo 4010" transform="translate(3017 -353)">
      <path id="Trazado_7263" data-name="Trazado 7263" d="M1,0H34a1,1,0,0,1,1,1V5a1,1,0,0,1-1,1H1A1,1,0,0,1,0,5V1A1,1,0,0,1,1,0Z" transform="translate(1090 451)" fill="rgba(255,255,255,0.12)"/>
      <path id="Rectángulo_6482" data-name="Rectángulo 6482" d="M1,0H8A0,0,0,0,1,8,0V6A0,0,0,0,1,8,6H1A1,1,0,0,1,0,5V1A1,1,0,0,1,1,0Z" transform="translate(1090 451)" fill="rgba(255,255,255,0.12)"/>
      <g id="Grupo_3975" data-name="Grupo 3975" transform="translate(-3 260)">
        <ellipse id="Elipse_1182" data-name="Elipse 1182" cx="0.76" cy="0.75" rx="0.76" ry="0.75" transform="translate(1130 191)" fill="rgba(255,255,255,0.6)"/>
        <ellipse id="Elipse_1183" data-name="Elipse 1183" cx="0.76" cy="0.75" rx="0.76" ry="0.75" transform="translate(1130 193)" fill="rgba(255,255,255,0.6)"/>
        <ellipse id="Elipse_1184" data-name="Elipse 1184" cx="0.76" cy="0.75" rx="0.76" ry="0.75" transform="translate(1130 195)" fill="rgba(255,255,255,0.6)"/>
      </g>
    </g>
    <g id="Grupo_4011" data-name="Grupo 4011" transform="translate(3017 -353)">
      <path id="Trazado_7203" data-name="Trazado 7203" d="M18835.143,195h96" transform="translate(-17803.143 290)" fill="none" stroke="rgba(255,255,255,0.12)" stroke-linecap="round" stroke-width="1.51"/>
      <path id="Trazado_7210" data-name="Trazado 7210" d="M18835.145,195h14" transform="translate(-17800.645 284)" fill="none" stroke="rgba(255,255,255,0.6)" stroke-linecap="round" stroke-width="1.51"/>
      <path id="Trazado_7211" data-name="Trazado 7211" d="M18835.145,195h11.523" transform="translate(-17774.645 284)" fill="none" stroke="rgba(255,255,255,0.6)" stroke-linecap="round" stroke-width="1.51"/>
      <path id="Trazado_7212" data-name="Trazado 7212" d="M18835.145,195h18.383" transform="translate(-17751.645 284)" fill="none" stroke="rgba(255,255,255,0.6)" stroke-linecap="round" stroke-width="1.51"/>
      <text id="_8" data-name="8" transform="translate(1119 482)" fill="rgba(255,255,255,0.6)" font-size="8" font-family="Poppins-Medium, Poppins" font-weight="500"><tspan x="0" y="0">8</tspan></text>
    </g>
    <g id="Grupo_4012" data-name="Grupo 4012" transform="translate(3017 -353)">
      <path id="Trazado_7207" data-name="Trazado 7207" d="M18835.143,195h96" transform="translate(-17803.143 302)" fill="none" stroke="rgba(255,255,255,0.12)" stroke-linecap="round" stroke-width="1.51"/>
      <path id="Trazado_7214" data-name="Trazado 7214" d="M18835.145,195h16" transform="translate(-17800.645 296)" fill="none" stroke="rgba(255,255,255,0.6)" stroke-linecap="round" stroke-width="1.51"/>
      <path id="Trazado_7215" data-name="Trazado 7215" d="M18835.145,195h10" transform="translate(-17774.645 296)" fill="none" stroke="rgba(255,255,255,0.6)" stroke-linecap="round" stroke-width="1.51"/>
      <path id="Trazado_7216" data-name="Trazado 7216" d="M18835.145,195h13.564" transform="translate(-17751.645 296)" fill="none" stroke="rgba(255,255,255,0.6)" stroke-linecap="round" stroke-width="1.51"/>
      <text id="_5" data-name="5" transform="translate(1119 495)" fill="rgba(255,255,255,0.6)" font-size="8" font-family="Poppins-Medium, Poppins" font-weight="500"><tspan x="0" y="0">5</tspan></text>
    </g>
    <g id="Grupo_4013" data-name="Grupo 4013" transform="translate(3017 -353)">
      <path id="Trazado_7208" data-name="Trazado 7208" d="M18835.143,195h96" transform="translate(-17803.143 314)" fill="none" stroke="rgba(255,255,255,0.12)" stroke-linecap="round" stroke-width="1.51"/>
      <path id="Trazado_7218" data-name="Trazado 7218" d="M18835.145,195h13.223" transform="translate(-17800.645 308)" fill="none" stroke="rgba(255,255,255,0.6)" stroke-linecap="round" stroke-width="1.51"/>
      <path id="Trazado_7219" data-name="Trazado 7219" d="M18835.145,195h8.391" transform="translate(-17774.645 308)" fill="none" stroke="rgba(255,255,255,0.6)" stroke-linecap="round" stroke-width="1.51"/>
      <path id="Trazado_7220" data-name="Trazado 7220" d="M18835.145,195h12.359" transform="translate(-17751.645 308)" fill="none" stroke="rgba(255,255,255,0.6)" stroke-linecap="round" stroke-width="1.51"/>
      <text id="_12" data-name="12" transform="translate(1117 506)" fill="rgba(255,255,255,0.6)" font-size="8" font-family="Poppins-Medium, Poppins" font-weight="500"><tspan x="0" y="0">12</tspan></text>
    </g>
    <g id="Grupo_4014" data-name="Grupo 4014" transform="translate(3017 -353)">
      <path id="Trazado_7209" data-name="Trazado 7209" d="M18835.143,195h96" transform="translate(-17803.143 326)" fill="none" stroke="rgba(255,255,255,0.12)" stroke-linecap="round" stroke-width="1.51"/>
      <path id="Trazado_7222" data-name="Trazado 7222" d="M18835.145,195h9.609" transform="translate(-17800.645 320)" fill="none" stroke="rgba(255,255,255,0.6)" stroke-linecap="round" stroke-width="1.51"/>
      <path id="Trazado_7223" data-name="Trazado 7223" d="M18835.145,195h13.451" transform="translate(-17774.645 320)" fill="none" stroke="rgba(255,255,255,0.6)" stroke-linecap="round" stroke-width="1.51"/>
      <path id="Trazado_7224" data-name="Trazado 7224" d="M18835.145,195h10.891" transform="translate(-17751.645 320)" fill="none" stroke="rgba(255,255,255,0.6)" stroke-linecap="round" stroke-width="1.51"/>
      <text id="_63" data-name="63" transform="translate(1114 518)" fill="rgba(255,255,255,0.6)" font-size="8" font-family="Poppins-Medium, Poppins" font-weight="500"><tspan x="0" y="0">63</tspan></text>
    </g>
  </g>
</svg>
